<svg xmlns="http://www.w3.org/2000/svg" xmlns:xlink="http://www.w3.org/1999/xlink" xmlns:lucid="lucid" width="1822.72" height="1239"><g transform="translate(-8.279389406021096 -1311.9994195046897)" lucid:page-tab-id="0_0"><path d="M0 1258.83h1870.87v1322.84H0z" fill="#fff"/><path d="M28.28 1687.88a6 6 0 0 1 6-6h288a6 6 0 0 1 6 6v139a6 6 0 0 1-6 6h-288a6 6 0 0 1-6-6z" fill="#fff"/><path d="M28.28 1687.88a6 6 0 0 1 6-6h288a6 6 0 0 1 6 6v139a6 6 0 0 1-6 6h-288a6 6 0 0 1-6-6zM28.28 1721.88h300M88.28 1721.88v111M216.28 1721.88v111" stroke="#5e5e5e" stroke-width="3" fill="none"/><use xlink:href="#a" transform="matrix(1,0,0,1,38.279389406021096,1681.8810814586614) translate(46.265432098765444 24.444444444444443)"/><use xlink:href="#b" transform="matrix(1,0,0,1,33.279389406021096,1724.3810814586614) translate(10.833333333333336 20.444444444444443)"/><use xlink:href="#c" transform="matrix(1,0,0,1,93.2793894060211,1724.3810814586614) translate(0 20.444444444444443)"/><use xlink:href="#d" transform="matrix(1,0,0,1,221.2793894060211,1724.3810814586614) translate(0 20.444444444444443)"/><use xlink:href="#b" transform="matrix(1,0,0,1,33.279389406021096,1761.3810814586614) translate(10.833333333333336 20.444444444444443)"/><use xlink:href="#e" transform="matrix(1,0,0,1,93.2793894060211,1761.3810814586614) translate(0 20.444444444444443)"/><use xlink:href="#d" transform="matrix(1,0,0,1,221.2793894060211,1761.3810814586614) translate(0 20.444444444444443)"/><use xlink:href="#f" transform="matrix(1,0,0,1,33.279389406021096,1798.3810814586614) translate(9.012345679012347 20.444444444444443)"/><use xlink:href="#g" transform="matrix(1,0,0,1,93.2793894060211,1798.3810814586614) translate(0 20.444444444444443)"/><use xlink:href="#d" transform="matrix(1,0,0,1,221.2793894060211,1798.3810814586614) translate(0 20.444444444444443)"/><path d="M903.95 1803a6 6 0 0 1 6-6h329.98a6 6 0 0 1 6 6v139a6 6 0 0 1-6 6H909.95a6 6 0 0 1-6-6z" fill="#fff"/><path d="M903.95 1803a6 6 0 0 1 6-6h329.98a6 6 0 0 1 6 6v139a6 6 0 0 1-6 6H909.95a6 6 0 0 1-6-6zM903.95 1837h341.98M963.95 1837v111M1129.93 1837v111" stroke="#5e5e5e" stroke-width="3" fill="none"/><use xlink:href="#h" transform="matrix(1,0,0,1,913.9479382604446,1797) translate(37.666666666666686 24.444444444444443)"/><use xlink:href="#b" transform="matrix(1,0,0,1,908.9479382604446,1839.5) translate(10.833333333333336 20.444444444444443)"/><use xlink:href="#c" transform="matrix(1,0,0,1,968.9479382604446,1839.5) translate(0 20.444444444444443)"/><use xlink:href="#d" transform="matrix(1,0,0,1,1134.9281150680408,1839.5) translate(0 20.444444444444443)"/><use xlink:href="#b" transform="matrix(1,0,0,1,908.9479382604446,1876.5) translate(10.833333333333336 20.444444444444443)"/><use xlink:href="#i" transform="matrix(1,0,0,1,968.9479382604446,1876.5) translate(0 20.444444444444443)"/><use xlink:href="#d" transform="matrix(1,0,0,1,1134.9281150680408,1876.5) translate(0 20.444444444444443)"/><use xlink:href="#f" transform="matrix(1,0,0,1,908.9479382604446,1913.5) translate(9.012345679012347 20.444444444444443)"/><use xlink:href="#g" transform="matrix(1,0,0,1,968.9479382604446,1913.5) translate(0 20.444444444444443)"/><use xlink:href="#d" transform="matrix(1,0,0,1,1134.9281150680408,1913.5) translate(0 20.444444444444443)"/><path d="M80 2063a6 6 0 0 1 6-6h298a6 6 0 0 1 6 6v139a6 6 0 0 1-6 6H86a6 6 0 0 1-6-6z" fill="#fff"/><path d="M80 2063a6 6 0 0 1 6-6h298a6 6 0 0 1 6 6v139a6 6 0 0 1-6 6H86a6 6 0 0 1-6-6zM80 2097h310M140 2097v111M275.33 2097v111" stroke="#5e5e5e" stroke-width="3" fill="none"/><use xlink:href="#j" transform="matrix(1,0,0,1,90,2057) translate(57.43827160493828 24.444444444444443)"/><use xlink:href="#b" transform="matrix(1,0,0,1,85,2099.5) translate(10.833333333333336 20.444444444444443)"/><use xlink:href="#c" transform="matrix(1,0,0,1,145,2099.5) translate(0 20.444444444444443)"/><use xlink:href="#d" transform="matrix(1,0,0,1,280.33333333333303,2099.5) translate(0 20.444444444444443)"/><use xlink:href="#b" transform="matrix(1,0,0,1,85,2136.5) translate(10.833333333333336 20.444444444444443)"/><use xlink:href="#k" transform="matrix(1,0,0,1,145,2136.5) translate(0 20.444444444444443)"/><use xlink:href="#d" transform="matrix(1,0,0,1,280.33333333333303,2136.5) translate(0 20.444444444444443)"/><use xlink:href="#f" transform="matrix(1,0,0,1,85,2173.5) translate(9.012345679012347 20.444444444444443)"/><use xlink:href="#g" transform="matrix(1,0,0,1,145,2173.5) translate(0 20.444444444444443)"/><use xlink:href="#d" transform="matrix(1,0,0,1,280.33333333333303,2173.5) translate(0 20.444444444444443)"/><path d="M40 1338a6 6 0 0 1 6-6h428a6 6 0 0 1 6 6v250a6 6 0 0 1-6 6H46a6 6 0 0 1-6-6z" fill="#fff"/><path d="M40 1372v-34a6 6 0 0 1 6-6h428a6 6 0 0 1 6 6v34" fill="#ccc"/><path d="M40 1338a6 6 0 0 1 6-6h428a6 6 0 0 1 6 6v250a6 6 0 0 1-6 6H46a6 6 0 0 1-6-6zM40 1372h440M130 1372v222M311.66 1372v222" stroke="#5e5e5e" stroke-width="3" fill="none"/><use xlink:href="#l" transform="matrix(1,0,0,1,50,1331.9994195046897) translate(185.33950617283952 24.444444444444443)"/><use xlink:href="#m" transform="matrix(1,0,0,1,45,1374.4994195046897) translate(6.611111111111114 20.444444444444443)"/><use xlink:href="#n" transform="matrix(1,0,0,1,45,1374.4994195046897) translate(42.41358024691358 20.444444444444443)"/><use xlink:href="#o" transform="matrix(1,0,0,1,135.00000000000017,1374.4994195046897) translate(0 20.444444444444443)"/><use xlink:href="#d" transform="matrix(1,0,0,1,316.656755070465,1374.4994195046897) translate(0 20.444444444444443)"/><use xlink:href="#f" transform="matrix(1,0,0,1,45,1411.4994195046897) translate(24.51234567901235 20.444444444444443)"/><use xlink:href="#p" transform="matrix(1,0,0,1,135.00000000000017,1411.4994195046897) translate(0 20.444444444444443)"/><use xlink:href="#q" transform="matrix(1,0,0,1,316.656755070465,1411.4994195046897) translate(0 20.444444444444443)"/><use xlink:href="#f" transform="matrix(1,0,0,1,45,1448.4994195046897) translate(24.51234567901235 20.444444444444443)"/><use xlink:href="#r" transform="matrix(1,0,0,1,135.00000000000017,1448.4994195046897) translate(0 20.444444444444443)"/><use xlink:href="#s" transform="matrix(1,0,0,1,316.656755070465,1448.4994195046897) translate(0 20.444444444444443)"/><use xlink:href="#f" transform="matrix(1,0,0,1,45,1485.4994195046897) translate(24.51234567901235 20.444444444444443)"/><use xlink:href="#t" transform="matrix(1,0,0,1,135.00000000000017,1485.4994195046897) translate(0 20.444444444444443)"/><use xlink:href="#u" transform="matrix(1,0,0,1,316.656755070465,1485.4994195046897) translate(0 20.444444444444443)"/><use xlink:href="#v" transform="matrix(1,0,0,1,316.656755070465,1485.4994195046897) translate(135.4320987654321 20.444444444444443)"/><use xlink:href="#f" transform="matrix(1,0,0,1,45,1522.4994195046897) translate(24.51234567901235 20.444444444444443)"/><use xlink:href="#w" transform="matrix(1,0,0,1,135.00000000000017,1522.4994195046897) translate(0 20.444444444444443)"/><use xlink:href="#x" transform="matrix(1,0,0,1,316.656755070465,1522.4994195046897) translate(0 20.444444444444443)"/><use xlink:href="#f" transform="matrix(1,0,0,1,45,1559.4994195046897) translate(24.51234567901235 20.444444444444443)"/><use xlink:href="#y" transform="matrix(1,0,0,1,135.00000000000017,1559.4994195046897) translate(0 20.444444444444443)"/><use xlink:href="#x" transform="matrix(1,0,0,1,316.656755070465,1559.4994195046897) translate(0 20.444444444444443)"/><path d="M1088.88 2196.5a6 6 0 0 1 6-6h428a6 6 0 0 1 6 6v287a6 6 0 0 1-6 6h-428a6 6 0 0 1-6-6z" fill="#fff"/><path d="M1088.88 2230.5v-34a6 6 0 0 1 6-6h428a6 6 0 0 1 6 6v34" fill="#ccc"/><path d="M1088.88 2196.5a6 6 0 0 1 6-6h428a6 6 0 0 1 6 6v287a6 6 0 0 1-6 6h-428a6 6 0 0 1-6-6zM1088.88 2230.5h440M1178.88 2230.5v259M1360.54 2230.5v259" stroke="#5e5e5e" stroke-width="3" fill="none"/><use xlink:href="#z" transform="matrix(1,0,0,1,1098.8801284893934,2190.5) translate(155.74074074074073 24.444444444444443)"/><use xlink:href="#m" transform="matrix(1,0,0,1,1093.8801284893934,2233) translate(6.611111111111114 20.444444444444443)"/><use xlink:href="#n" transform="matrix(1,0,0,1,1093.8801284893934,2233) translate(42.41358024691358 20.444444444444443)"/><use xlink:href="#o" transform="matrix(1,0,0,1,1183.8801284893937,2233) translate(0 20.444444444444443)"/><use xlink:href="#d" transform="matrix(1,0,0,1,1365.5368835598583,2233) translate(0 20.444444444444443)"/><use xlink:href="#f" transform="matrix(1,0,0,1,1093.8801284893934,2270) translate(24.51234567901235 20.444444444444443)"/><use xlink:href="#p" transform="matrix(1,0,0,1,1183.8801284893937,2270) translate(0 20.444444444444443)"/><use xlink:href="#q" transform="matrix(1,0,0,1,1365.5368835598583,2270) translate(0 20.444444444444443)"/><use xlink:href="#f" transform="matrix(1,0,0,1,1093.8801284893934,2307) translate(24.51234567901235 20.444444444444443)"/><use xlink:href="#r" transform="matrix(1,0,0,1,1183.8801284893937,2307) translate(0 20.444444444444443)"/><use xlink:href="#s" transform="matrix(1,0,0,1,1365.5368835598583,2307) translate(0 20.444444444444443)"/><use xlink:href="#f" transform="matrix(1,0,0,1,1093.8801284893934,2344) translate(24.51234567901235 20.444444444444443)"/><use xlink:href="#A" transform="matrix(1,0,0,1,1183.8801284893937,2344) translate(0 20.444444444444443)"/><use xlink:href="#d" transform="matrix(1,0,0,1,1365.5368835598583,2344) translate(0 20.444444444444443)"/><use xlink:href="#f" transform="matrix(1,0,0,1,1093.8801284893934,2381) translate(24.51234567901235 20.444444444444443)"/><use xlink:href="#t" transform="matrix(1,0,0,1,1183.8801284893937,2381) translate(0 20.444444444444443)"/><use xlink:href="#u" transform="matrix(1,0,0,1,1365.5368835598583,2381) translate(0 20.444444444444443)"/><use xlink:href="#v" transform="matrix(1,0,0,1,1365.5368835598583,2381) translate(135.4320987654321 20.444444444444443)"/><use xlink:href="#f" transform="matrix(1,0,0,1,1093.8801284893934,2418) translate(24.51234567901235 20.444444444444443)"/><use xlink:href="#w" transform="matrix(1,0,0,1,1183.8801284893937,2418) translate(0 20.444444444444443)"/><use xlink:href="#x" transform="matrix(1,0,0,1,1365.5368835598583,2418) translate(0 20.444444444444443)"/><use xlink:href="#f" transform="matrix(1,0,0,1,1093.8801284893934,2455) translate(24.51234567901235 20.444444444444443)"/><use xlink:href="#y" transform="matrix(1,0,0,1,1183.8801284893937,2455) translate(0 20.444444444444443)"/><use xlink:href="#x" transform="matrix(1,0,0,1,1365.5368835598583,2455) translate(0 20.444444444444443)"/><path d="M100 2307.5a6 6 0 0 1 6-6h448a6 6 0 0 1 6 6v176a6 6 0 0 1-6 6H106a6 6 0 0 1-6-6z" fill="#fff"/><path d="M100 2341.5v-34a6 6 0 0 1 6-6h448a6 6 0 0 1 6 6v34" fill="#ccc"/><path d="M100 2307.5a6 6 0 0 1 6-6h448a6 6 0 0 1 6 6v176a6 6 0 0 1-6 6H106a6 6 0 0 1-6-6zM100 2341.5h460M179 2341.5v148M390.76 2341.5v148" stroke="#5e5e5e" stroke-width="3" fill="none"/><use xlink:href="#B" transform="matrix(1,0,0,1,110,2301.5) translate(186.08024691358025 24.444444444444443)"/><use xlink:href="#m" transform="matrix(1,0,0,1,105,2344) translate(0.6111111111111143 20.444444444444443)"/><use xlink:href="#n" transform="matrix(1,0,0,1,105,2344) translate(36.41358024691358 20.444444444444443)"/><use xlink:href="#o" transform="matrix(1,0,0,1,183.99999999999997,2344) translate(0 20.444444444444443)"/><use xlink:href="#d" transform="matrix(1,0,0,1,395.7597968069663,2344) translate(0 20.444444444444443)"/><use xlink:href="#f" transform="matrix(1,0,0,1,105,2381) translate(18.51234567901235 20.444444444444443)"/><use xlink:href="#C" transform="matrix(1,0,0,1,183.99999999999997,2381) translate(0 20.444444444444443)"/><use xlink:href="#q" transform="matrix(1,0,0,1,395.7597968069663,2381) translate(0 20.444444444444443)"/><use xlink:href="#f" transform="matrix(1,0,0,1,105,2418) translate(18.51234567901235 20.444444444444443)"/><use xlink:href="#D" transform="matrix(1,0,0,1,183.99999999999997,2418) translate(0 20.444444444444443)"/><use xlink:href="#x" transform="matrix(1,0,0,1,395.7597968069663,2418) translate(0 20.444444444444443)"/><use xlink:href="#f" transform="matrix(1,0,0,1,105,2455) translate(18.51234567901235 20.444444444444443)"/><use xlink:href="#E" transform="matrix(1,0,0,1,183.99999999999997,2455) translate(0 20.444444444444443)"/><use xlink:href="#x" transform="matrix(1,0,0,1,395.7597968069663,2455) translate(0 20.444444444444443)"/><path d="M622.6 2026a6 6 0 0 1 6-6h388a6 6 0 0 1 6 6v213a6 6 0 0 1-6 6h-388a6 6 0 0 1-6-6z" fill="#fff"/><path d="M622.6 2060v-34a6 6 0 0 1 6-6h388a6 6 0 0 1 6 6v34" fill="#ccc"/><path d="M622.6 2026a6 6 0 0 1 6-6h388a6 6 0 0 1 6 6v213a6 6 0 0 1-6 6h-388a6 6 0 0 1-6-6zM622.6 2060h400M702.12 2060v185M852 2060v185" stroke="#5e5e5e" stroke-width="3" fill="none"/><use xlink:href="#F" transform="matrix(1,0,0,1,632.5867523262623,2020) translate(171.51234567901236 24.444444444444443)"/><use xlink:href="#m" transform="matrix(1,0,0,1,627.5867523262623,2062.5) translate(1.1111111111111143 20.444444444444443)"/><use xlink:href="#n" transform="matrix(1,0,0,1,627.5867523262623,2062.5) translate(36.91358024691358 20.444444444444443)"/><use xlink:href="#o" transform="matrix(1,0,0,1,707.1223111071037,2062.5) translate(0 20.444444444444443)"/><use xlink:href="#d" transform="matrix(1,0,0,1,857.0134576963634,2062.5) translate(0 20.444444444444443)"/><use xlink:href="#f" transform="matrix(1,0,0,1,627.5867523262623,2099.5) translate(19.01234567901235 20.444444444444443)"/><use xlink:href="#G" transform="matrix(1,0,0,1,707.1223111071037,2099.5) translate(0 20.444444444444443)"/><use xlink:href="#x" transform="matrix(1,0,0,1,857.0134576963634,2099.5) translate(0 20.444444444444443)"/><use xlink:href="#f" transform="matrix(1,0,0,1,627.5867523262623,2136.5) translate(19.01234567901235 20.444444444444443)"/><use xlink:href="#H" transform="matrix(1,0,0,1,707.1223111071037,2136.5) translate(0 20.444444444444443)"/><use xlink:href="#d" transform="matrix(1,0,0,1,857.0134576963634,2136.5) translate(0 20.444444444444443)"/><use xlink:href="#f" transform="matrix(1,0,0,1,627.5867523262623,2173.5) translate(19.01234567901235 20.444444444444443)"/><use xlink:href="#I" transform="matrix(1,0,0,1,707.1223111071037,2173.5) translate(0 20.444444444444443)"/><use xlink:href="#J" transform="matrix(1,0,0,1,857.0134576963634,2173.5) translate(0 20.444444444444443)"/><use xlink:href="#b" transform="matrix(1,0,0,1,627.5867523262623,2210.5) translate(20.833333333333336 20.444444444444443)"/><use xlink:href="#K" transform="matrix(1,0,0,1,707.1223111071037,2210.5) translate(0 20.444444444444443)"/><use xlink:href="#d" transform="matrix(1,0,0,1,857.0134576963634,2210.5) translate(0 20.444444444444443)"/><path d="M623.88 2326a6 6 0 0 1 6-6h385.4a6 6 0 0 1 6 6v139a6 6 0 0 1-6 6H629.9a6 6 0 0 1-6-6z" fill="#fff"/><path d="M623.88 2360v-34a6 6 0 0 1 6-6h385.4a6 6 0 0 1 6 6v34" fill="#ccc"/><path d="M623.88 2326a6 6 0 0 1 6-6h385.4a6 6 0 0 1 6 6v139a6 6 0 0 1-6 6H629.9a6 6 0 0 1-6-6zM623.88 2360h397.4M703.88 2360v111M903.3 2360v111" stroke="#5e5e5e" stroke-width="3" fill="none"/><use xlink:href="#L" transform="matrix(1,0,0,1,633.8801284893934,2320) translate(143.3827160493827 24.444444444444443)"/><use xlink:href="#m" transform="matrix(1,0,0,1,628.8801284893934,2362.5) translate(1.1111111111111143 20.444444444444443)"/><use xlink:href="#n" transform="matrix(1,0,0,1,628.8801284893934,2362.5) translate(36.91358024691358 20.444444444444443)"/><use xlink:href="#o" transform="matrix(1,0,0,1,708.8801284893925,2362.5) translate(0 20.444444444444443)"/><use xlink:href="#d" transform="matrix(1,0,0,1,908.2933761631302,2362.5) translate(0 20.444444444444443)"/><use xlink:href="#f" transform="matrix(1,0,0,1,628.8801284893934,2399.5) translate(19.01234567901235 20.444444444444443)"/><use xlink:href="#M" transform="matrix(1,0,0,1,708.8801284893925,2399.5) translate(0 20.444444444444443)"/><use xlink:href="#N" transform="matrix(1,0,0,1,908.2933761631302,2399.5) translate(0 20.444444444444443)"/><use xlink:href="#b" transform="matrix(1,0,0,1,628.8801284893934,2436.5) translate(20.833333333333336 20.444444444444443)"/><use xlink:href="#O" transform="matrix(1,0,0,1,708.8801284893925,2436.5) translate(0 20.444444444444443)"/><use xlink:href="#d" transform="matrix(1,0,0,1,908.2933761631302,2436.5) translate(0 20.444444444444443)"/><path d="M406.1 1766a6 6 0 0 1 6-6h408a6 6 0 0 1 6 6v213a6 6 0 0 1-6 6h-408a6 6 0 0 1-6-6z" fill="#fff"/><path d="M406.1 1800v-34a6 6 0 0 1 6-6h408a6 6 0 0 1 6 6v34" fill="#ccc"/><path d="M406.1 1766a6 6 0 0 1 6-6h408a6 6 0 0 1 6 6v213a6 6 0 0 1-6 6h-408a6 6 0 0 1-6-6zM406.1 1800h420M485.65 1800v185M655.54 1800v185" stroke="#5e5e5e" stroke-width="3" fill="none"/><use xlink:href="#P" transform="matrix(1,0,0,1,416.11366383323286,1760) translate(162.99382716049382 24.444444444444443)"/><use xlink:href="#m" transform="matrix(1,0,0,1,411.11366383323286,1802.5) translate(1.1111111111111143 20.444444444444443)"/><use xlink:href="#n" transform="matrix(1,0,0,1,411.11366383323286,1802.5) translate(36.91358024691358 20.444444444444443)"/><use xlink:href="#o" transform="matrix(1,0,0,1,490.64922261407423,1802.5) translate(0 20.444444444444443)"/><use xlink:href="#d" transform="matrix(1,0,0,1,660.540369203334,1802.5) translate(0 20.444444444444443)"/><use xlink:href="#f" transform="matrix(1,0,0,1,411.11366383323286,1839.5) translate(19.01234567901235 20.444444444444443)"/><use xlink:href="#Q" transform="matrix(1,0,0,1,490.64922261407423,1839.5) translate(0 20.444444444444443)"/><use xlink:href="#s" transform="matrix(1,0,0,1,660.540369203334,1839.5) translate(0 20.444444444444443)"/><use xlink:href="#f" transform="matrix(1,0,0,1,411.11366383323286,1876.5) translate(19.01234567901235 20.444444444444443)"/><use xlink:href="#R" transform="matrix(1,0,0,1,490.64922261407423,1876.5) translate(0 20.444444444444443)"/><use xlink:href="#S" transform="matrix(1,0,0,1,660.540369203334,1876.5) translate(0 20.444444444444443)"/><use xlink:href="#v" transform="matrix(1,0,0,1,660.540369203334,1876.5) translate(135.4320987654321 20.444444444444443)"/><use xlink:href="#f" transform="matrix(1,0,0,1,411.11366383323286,1913.5) translate(19.01234567901235 20.444444444444443)"/><use xlink:href="#T" transform="matrix(1,0,0,1,490.64922261407423,1913.5) translate(0 20.444444444444443)"/><use xlink:href="#S" transform="matrix(1,0,0,1,660.540369203334,1913.5) translate(0 20.444444444444443)"/><use xlink:href="#v" transform="matrix(1,0,0,1,660.540369203334,1913.5) translate(135.4320987654321 20.444444444444443)"/><use xlink:href="#b" transform="matrix(1,0,0,1,411.11366383323286,1950.5) translate(20.833333333333336 20.444444444444443)"/><use xlink:href="#U" transform="matrix(1,0,0,1,490.64922261407423,1950.5) translate(0 20.444444444444443)"/><use xlink:href="#d" transform="matrix(1,0,0,1,660.540369203334,1950.5) translate(0 20.444444444444443)"/><path d="M572.6 1486a6 6 0 0 1 6-6h488a6 6 0 0 1 6 6v213a6 6 0 0 1-6 6h-488a6 6 0 0 1-6-6z" fill="#fff"/><path d="M572.6 1520v-34a6 6 0 0 1 6-6h488a6 6 0 0 1 6 6v34" fill="#ccc"/><path d="M572.6 1486a6 6 0 0 1 6-6h488a6 6 0 0 1 6 6v213a6 6 0 0 1-6 6h-488a6 6 0 0 1-6-6zM572.6 1520h500M652.12 1520v185M902 1520v185" stroke="#5e5e5e" stroke-width="3" fill="none"/><use xlink:href="#V" transform="matrix(1,0,0,1,582.5867523262623,1480) translate(213.5493827160494 24.444444444444443)"/><use xlink:href="#m" transform="matrix(1,0,0,1,577.5867523262623,1522.5) translate(1.1111111111111143 20.444444444444443)"/><use xlink:href="#n" transform="matrix(1,0,0,1,577.5867523262623,1522.5) translate(36.91358024691358 20.444444444444443)"/><use xlink:href="#o" transform="matrix(1,0,0,1,657.1223111071037,1522.5) translate(0 20.444444444444443)"/><use xlink:href="#d" transform="matrix(1,0,0,1,907.0134576963634,1522.5) translate(0 20.444444444444443)"/><use xlink:href="#f" transform="matrix(1,0,0,1,577.5867523262623,1559.5) translate(19.01234567901235 20.444444444444443)"/><use xlink:href="#W" transform="matrix(1,0,0,1,657.1223111071037,1559.5) translate(0 20.444444444444443)"/><use xlink:href="#S" transform="matrix(1,0,0,1,907.0134576963634,1559.5) translate(0 20.444444444444443)"/><use xlink:href="#v" transform="matrix(1,0,0,1,907.0134576963634,1559.5) translate(135.4320987654321 20.444444444444443)"/><use xlink:href="#f" transform="matrix(1,0,0,1,577.5867523262623,1596.5) translate(19.01234567901235 20.444444444444443)"/><use xlink:href="#X" transform="matrix(1,0,0,1,657.1223111071037,1596.5) translate(0 20.444444444444443)"/><use xlink:href="#q" transform="matrix(1,0,0,1,907.0134576963634,1596.5) translate(0 20.444444444444443)"/><use xlink:href="#b" transform="matrix(1,0,0,1,577.5867523262623,1633.5) translate(20.833333333333336 20.444444444444443)"/><use xlink:href="#O" transform="matrix(1,0,0,1,657.1223111071037,1633.5) translate(0 20.444444444444443)"/><use xlink:href="#d" transform="matrix(1,0,0,1,907.0134576963634,1633.5) translate(0 20.444444444444443)"/><use xlink:href="#b" transform="matrix(1,0,0,1,577.5867523262623,1670.5) translate(20.833333333333336 20.444444444444443)"/><use xlink:href="#e" transform="matrix(1,0,0,1,657.1223111071037,1670.5) translate(0 20.444444444444443)"/><use xlink:href="#d" transform="matrix(1,0,0,1,907.0134576963634,1670.5) translate(0 20.444444444444443)"/><path d="M1280 1846a6 6 0 0 1 6-6h488a6 6 0 0 1 6 6v213a6 6 0 0 1-6 6h-488a6 6 0 0 1-6-6z" fill="#fff"/><path d="M1280 1880v-34a6 6 0 0 1 6-6h488a6 6 0 0 1 6 6v34" fill="#ccc"/><path d="M1280 1846a6 6 0 0 1 6-6h488a6 6 0 0 1 6 6v213a6 6 0 0 1-6 6h-488a6 6 0 0 1-6-6zM1280 1880h500M1359.54 1880v185M1609.43 1880v185" stroke="#5e5e5e" stroke-width="3" fill="none"/><use xlink:href="#Y" transform="matrix(1,0,0,1,1290,1840) translate(206.75925925925927 24.444444444444443)"/><use xlink:href="#m" transform="matrix(1,0,0,1,1285,1882.5) translate(1.1111111111111143 20.444444444444443)"/><use xlink:href="#n" transform="matrix(1,0,0,1,1285,1882.5) translate(36.91358024691358 20.444444444444443)"/><use xlink:href="#o" transform="matrix(1,0,0,1,1364.5355587808413,1882.5) translate(0 20.444444444444443)"/><use xlink:href="#d" transform="matrix(1,0,0,1,1614.426705370101,1882.5) translate(0 20.444444444444443)"/><use xlink:href="#f" transform="matrix(1,0,0,1,1285,1919.5) translate(19.01234567901235 20.444444444444443)"/><use xlink:href="#W" transform="matrix(1,0,0,1,1364.5355587808413,1919.5) translate(0 20.444444444444443)"/><use xlink:href="#S" transform="matrix(1,0,0,1,1614.426705370101,1919.5) translate(0 20.444444444444443)"/><use xlink:href="#v" transform="matrix(1,0,0,1,1614.426705370101,1919.5) translate(135.4320987654321 20.444444444444443)"/><use xlink:href="#f" transform="matrix(1,0,0,1,1285,1956.5) translate(19.01234567901235 20.444444444444443)"/><use xlink:href="#X" transform="matrix(1,0,0,1,1364.5355587808413,1956.5) translate(0 20.444444444444443)"/><use xlink:href="#q" transform="matrix(1,0,0,1,1614.426705370101,1956.5) translate(0 20.444444444444443)"/><use xlink:href="#b" transform="matrix(1,0,0,1,1285,1993.5) translate(20.833333333333336 20.444444444444443)"/><use xlink:href="#O" transform="matrix(1,0,0,1,1364.5355587808413,1993.5) translate(0 20.444444444444443)"/><use xlink:href="#d" transform="matrix(1,0,0,1,1614.426705370101,1993.5) translate(0 20.444444444444443)"/><use xlink:href="#b" transform="matrix(1,0,0,1,1285,2030.5) translate(20.833333333333336 20.444444444444443)"/><use xlink:href="#i" transform="matrix(1,0,0,1,1364.5355587808413,2030.5) translate(0 20.444444444444443)"/><use xlink:href="#d" transform="matrix(1,0,0,1,1614.426705370101,2030.5) translate(0 20.444444444444443)"/><path d="M822.6 2298.54v-33.25" stroke="#5e5e5e" stroke-width="2" fill="none"/><path d="M832.6 2308.54h-20M822.6 2318.54v-20M832.6 2298.54h-20" stroke="#5e5e5e" stroke-width="2" fill="#fff"/><path d="M832.6 2246.9l-10 20-10-20" stroke="#5e5e5e" stroke-width="2" fill="#fff" fill-opacity="0"/><path d="M822.6 2246.9v20" stroke="#5e5e5e" stroke-width="2" fill="#fff"/><path d="M601.12 2115.5H410.27" stroke="#5e5e5e" stroke-width="2" fill="none"/><path d="M611.12 2105.5v20M621.12 2115.5h-20M601.12 2105.5v20" stroke="#5e5e5e" stroke-width="2" fill="#fff"/><path d="M391.9 2105.5l20 10-20 10" stroke="#5e5e5e" stroke-width="2" fill="#fff" fill-opacity="0"/><path d="M391.9 2115.5h20" stroke="#5e5e5e" stroke-width="2" fill="#fff"/><path d="M384.68 1966.5H241a6 6 0 0 0-6 6v64.2" stroke="#5e5e5e" stroke-width="2" fill="none"/><path d="M394.68 1956.5v20M404.68 1966.5h-20M384.68 1956.5v20" stroke="#5e5e5e" stroke-width="2" fill="#fff"/><path d="M225 2055.1l10-20 10 20" stroke="#5e5e5e" stroke-width="2" fill="#fff" fill-opacity="0"/><path d="M235 2055.1v-20" stroke="#5e5e5e" stroke-width="2" fill="#fff"/><path d="M78.52 2360H46a6 6 0 0 1-6-6v-455.5a6 6 0 0 1 6-6h339.83" stroke="#5e5e5e" stroke-width="2" fill="none"/><path d="M88.52 2350v20M98.52 2360h-20M78.52 2350v20" stroke="#5e5e5e" stroke-width="2" fill="#fff"/><path d="M404.2 1902.5l-20-10 20-10" stroke="#5e5e5e" stroke-width="2" fill="#fff" fill-opacity="0"/><path d="M404.2 1892.5h-20" stroke="#5e5e5e" stroke-width="2" fill="#fff"/><path d="M847.58 1892.5h17.4a.07.07 0 0 1 .06.07.07.07 0 0 0 .07.07h18.57" stroke="#5e5e5e" stroke-width="2" fill="none"/><path d="M837.58 1902.5v-20M827.58 1892.5h20M847.58 1902.5v-20" stroke="#5e5e5e" stroke-width="2" fill="#fff"/><path d="M902.05 1902.64l-20-10 20-10" stroke="#5e5e5e" stroke-width="2" fill="#fff" fill-opacity="0"/><path d="M902.05 1892.64h-20" stroke="#5e5e5e" stroke-width="2" fill="#fff"/><path d="M1308.88 2169.04V2146a6 6 0 0 0-6-6h-221.94a6 6 0 0 1-6-6v-165.7" stroke="#5e5e5e" stroke-width="2" fill="none"/><path d="M1318.88 2179.04h-20M1308.88 2189.04v-20M1318.88 2169.04h-20" stroke="#5e5e5e" stroke-width="2" fill="#fff"/><path d="M1084.94 1949.9l-10 20-10-20" stroke="#5e5e5e" stroke-width="2" fill="#fff" fill-opacity="0"/><path d="M1074.94 1949.9v20" stroke="#5e5e5e" stroke-width="2" fill="#fff"/><path d="M384.62 1780h-36.04" stroke="#5e5e5e" stroke-width="2" fill="none"/><path d="M394.62 1770v20M404.62 1780h-20M384.62 1770v20" stroke="#5e5e5e" stroke-width="2" fill="#fff"/><path d="M330.2 1770l20 10-20 10" stroke="#5e5e5e" stroke-width="2" fill="#fff" fill-opacity="0"/><path d="M330.2 1780h20" stroke="#5e5e5e" stroke-width="2" fill="#fff"/><path d="M260 1615.46v16.48a6 6 0 0 1-6 6h-76.02a6 6 0 0 0-6 6v17.66" stroke="#5e5e5e" stroke-width="2" fill="none"/><path d="M250 1605.46h20M260 1595.46v20M250 1615.46h20" stroke="#5e5e5e" stroke-width="2" fill="#fff"/><path d="M161.98 1679.97l10-20 10 20" stroke="#5e5e5e" stroke-width="2" fill="#fff" fill-opacity="0"/><path d="M171.98 1679.97v-20" stroke="#5e5e5e" stroke-width="2" fill="#fff"/><path d="M1320 1486a6 6 0 0 1 6-6h408a6 6 0 0 1 6 6v250a6 6 0 0 1-6 6h-408a6 6 0 0 1-6-6z" fill="#fff"/><path d="M1320 1520v-34a6 6 0 0 1 6-6h408a6 6 0 0 1 6 6v34" fill="#ccc"/><path d="M1320 1486a6 6 0 0 1 6-6h408a6 6 0 0 1 6 6v250a6 6 0 0 1-6 6h-408a6 6 0 0 1-6-6zM1320 1520h420M1399.54 1520v222M1569.43 1520v222" stroke="#5e5e5e" stroke-width="3" fill="none"/><use xlink:href="#Z" transform="matrix(1,0,0,1,1330,1480) translate(129.69135802469134 24.444444444444443)"/><use xlink:href="#m" transform="matrix(1,0,0,1,1325,1522.5) translate(1.1111111111111143 20.444444444444443)"/><use xlink:href="#n" transform="matrix(1,0,0,1,1325,1522.5) translate(36.91358024691358 20.444444444444443)"/><use xlink:href="#o" transform="matrix(1,0,0,1,1404.5355587808413,1522.5) translate(0 20.444444444444443)"/><use xlink:href="#d" transform="matrix(1,0,0,1,1574.426705370101,1522.5) translate(0 20.444444444444443)"/><use xlink:href="#f" transform="matrix(1,0,0,1,1325,1559.5) translate(19.01234567901235 20.444444444444443)"/><use xlink:href="#aa" transform="matrix(1,0,0,1,1404.5355587808413,1559.5) translate(0 20.444444444444443)"/><use xlink:href="#ab" transform="matrix(1,0,0,1,1574.426705370101,1559.5) translate(0 20.444444444444443)"/><use xlink:href="#f" transform="matrix(1,0,0,1,1325,1596.5) translate(19.01234567901235 20.444444444444443)"/><use xlink:href="#ac" transform="matrix(1,0,0,1,1404.5355587808413,1596.5) translate(0 20.444444444444443)"/><use xlink:href="#ab" transform="matrix(1,0,0,1,1574.426705370101,1596.5) translate(0 20.444444444444443)"/><use xlink:href="#f" transform="matrix(1,0,0,1,1325,1633.5) translate(19.01234567901235 20.444444444444443)"/><use xlink:href="#ad" transform="matrix(1,0,0,1,1404.5355587808413,1633.5) translate(0 20.444444444444443)"/><use xlink:href="#ae" transform="matrix(1,0,0,1,1574.426705370101,1633.5) translate(0 20.444444444444443)"/><use xlink:href="#f" transform="matrix(1,0,0,1,1325,1670.5) translate(19.01234567901235 20.444444444444443)"/><use xlink:href="#af" transform="matrix(1,0,0,1,1404.5355587808413,1670.5) translate(0 20.444444444444443)"/><use xlink:href="#x" transform="matrix(1,0,0,1,1574.426705370101,1670.5) translate(0 20.444444444444443)"/><use xlink:href="#f" transform="matrix(1,0,0,1,1325,1707.5) translate(19.01234567901235 20.444444444444443)"/><use xlink:href="#ag" transform="matrix(1,0,0,1,1404.5355587808413,1707.5) translate(0 20.444444444444443)"/><use xlink:href="#ab" transform="matrix(1,0,0,1,1574.426705370101,1707.5) translate(0 20.444444444444443)"/><path d="M1530 1763.46v55.08" stroke="#5e5e5e" stroke-width="2" fill="none"/><path d="M1520 1753.46h20M1530 1743.46v20M1520 1763.46h20M1540 1828.54h-20M1530 1838.54v-20M1540 1818.54h-20" stroke="#5e5e5e" stroke-width="2" fill="#fff"/><path d="M1094.06 1612.5h204.48" stroke="#5e5e5e" stroke-width="2" fill="none"/><path d="M1084.06 1622.5v-20M1074.06 1612.5h20M1094.06 1622.5v-20M1308.54 1602.5v20M1318.54 1612.5h-20M1298.54 1602.5v20" stroke="#5e5e5e" stroke-width="2" fill="#fff"/><path d="M822.6 2492.46V2534a6 6 0 0 0 6 6H1814a6 6 0 0 0 6-6v-915.5a6 6 0 0 0-6-6h-52.54" stroke="#5e5e5e" stroke-width="2" fill="none"/><path d="M812.6 2482.46h20M822.6 2472.46v20M812.6 2492.46h20M1751.46 1622.5v-20M1741.46 1612.5h20M1761.46 1622.5v-20" stroke="#5e5e5e" stroke-width="2" fill="#fff"/><path d="M501.5 1538.5h50.78" stroke="#5e5e5e" stroke-width="2" fill="none"/><path d="M491.5 1548.5v-20M481.5 1538.5h20M501.5 1548.5v-20" stroke="#5e5e5e" stroke-width="2" fill="#fff"/><path d="M570.66 1548.5l-20-10 20-10" stroke="#5e5e5e" stroke-width="2" fill="#fff" fill-opacity="0"/><path d="M570.66 1538.5h-20" stroke="#5e5e5e" stroke-width="2" fill="#fff"/><path d="M1550.34 2323H1624a6 6 0 0 0 6-6v-151a6 6 0 0 0-6-6h-87.66a6 6 0 0 1-6-6v-25.37a.17.17 0 0 0-.17-.17.17.17 0 0 1-.17-.17v-43" stroke="#5e5e5e" stroke-width="2" fill="none"/><path d="M1540.34 2333v-20M1530.34 2323h20M1550.34 2333v-20" stroke="#5e5e5e" stroke-width="2" fill="#fff"/><path d="M1540 2066.9l-10 20-10-20" stroke="#5e5e5e" stroke-width="2" fill="#fff" fill-opacity="0"/><path d="M1530 2066.9v20" stroke="#5e5e5e" stroke-width="2" fill="#fff"/><defs><path fill="#333" d="M115-194c55 1 70 41 70 98S169 2 115 4C84 4 66-9 55-30l1 105H24l-1-265h31l2 30c10-21 28-34 59-34zm-8 174c40 0 45-34 45-75s-6-73-45-74c-42 0-51 32-51 76 0 43 10 73 51 73" id="ah"/><path fill="#333" d="M114-163C36-179 61-72 57 0H25l-1-190h30c1 12-1 29 2 39 6-27 23-49 58-41v29" id="ai"/><path fill="#333" d="M100-194c62-1 85 37 85 99 1 63-27 99-86 99S16-35 15-95c0-66 28-99 85-99zM99-20c44 1 53-31 53-75 0-43-8-75-51-75s-53 32-53 75 10 74 51 75" id="aj"/><path fill="#333" d="M85-194c31 0 48 13 60 33l-1-100h32l1 261h-30c-2-10 0-23-3-31C134-8 116 4 85 4 32 4 16-35 15-94c0-66 23-100 70-100zm9 24c-40 0-46 34-46 75 0 40 6 74 45 74 42 0 51-32 51-76 0-42-9-74-50-73" id="ak"/><path fill="#333" d="M84 4C-5 8 30-112 23-190h32v120c0 31 7 50 39 49 72-2 45-101 50-169h31l1 190h-30c-1-10 1-25-2-33-11 22-28 36-60 37" id="al"/><path fill="#333" d="M96-169c-40 0-48 33-48 73s9 75 48 75c24 0 41-14 43-38l32 2c-6 37-31 61-74 61-59 0-76-41-82-99-10-93 101-131 147-64 4 7 5 14 7 22l-32 3c-4-21-16-35-41-35" id="am"/><path fill="#333" d="M59-47c-2 24 18 29 38 22v24C64 9 27 4 27-40v-127H5v-23h24l9-43h21v43h35v23H59v120" id="an"/><path fill="#333" d="M135-143c-3-34-86-38-87 0 15 53 115 12 119 90S17 21 10-45l28-5c4 36 97 45 98 0-10-56-113-15-118-90-4-57 82-63 122-42 12 7 21 19 24 35" id="ao"/><path fill="#333" d="M-5 72V49h209v23H-5" id="ap"/><path fill="#333" d="M24-231v-30h32v30H24zM24 0v-190h32V0H24" id="aq"/><path fill="#333" d="M117-194c89-4 53 116 60 194h-32v-121c0-31-8-49-39-48C34-167 62-67 57 0H25l-1-190h30c1 10-1 24 2 32 11-22 29-35 61-36" id="ar"/><path fill="#333" d="M100-194c63 0 86 42 84 106H49c0 40 14 67 53 68 26 1 43-12 49-29l28 8c-11 28-37 45-77 45C44 4 14-33 15-96c1-61 26-98 85-98zm52 81c6-60-76-77-97-28-3 7-6 17-6 28h103" id="as"/><g id="a"><use transform="matrix(0.06172839506172839,0,0,0.06172839506172839,0,0)" xlink:href="#ah"/><use transform="matrix(0.06172839506172839,0,0,0.06172839506172839,12.345679012345679,0)" xlink:href="#ai"/><use transform="matrix(0.06172839506172839,0,0,0.06172839506172839,19.691358024691358,0)" xlink:href="#aj"/><use transform="matrix(0.06172839506172839,0,0,0.06172839506172839,32.03703703703704,0)" xlink:href="#ak"/><use transform="matrix(0.06172839506172839,0,0,0.06172839506172839,44.382716049382715,0)" xlink:href="#al"/><use transform="matrix(0.06172839506172839,0,0,0.06172839506172839,56.72839506172839,0)" xlink:href="#am"/><use transform="matrix(0.06172839506172839,0,0,0.06172839506172839,67.8395061728395,0)" xlink:href="#an"/><use transform="matrix(0.06172839506172839,0,0,0.06172839506172839,74.01234567901234,0)" xlink:href="#ao"/><use transform="matrix(0.06172839506172839,0,0,0.06172839506172839,85.12345679012346,0)" xlink:href="#ap"/><use transform="matrix(0.06172839506172839,0,0,0.06172839506172839,97.46913580246914,0)" xlink:href="#aq"/><use transform="matrix(0.06172839506172839,0,0,0.06172839506172839,102.34567901234568,0)" xlink:href="#ar"/><use transform="matrix(0.06172839506172839,0,0,0.06172839506172839,114.69135802469137,0)" xlink:href="#ap"/><use transform="matrix(0.06172839506172839,0,0,0.06172839506172839,127.03703703703705,0)" xlink:href="#ao"/><use transform="matrix(0.06172839506172839,0,0,0.06172839506172839,138.14814814814815,0)" xlink:href="#an"/><use transform="matrix(0.06172839506172839,0,0,0.06172839506172839,144.320987654321,0)" xlink:href="#aj"/><use transform="matrix(0.06172839506172839,0,0,0.06172839506172839,156.66666666666666,0)" xlink:href="#ai"/><use transform="matrix(0.06172839506172839,0,0,0.06172839506172839,164.01234567901233,0)" xlink:href="#as"/><use transform="matrix(0.06172839506172839,0,0,0.06172839506172839,176.358024691358,0)" xlink:href="#ao"/></g><path fill="#333" d="M63-220v92h138v28H63V0H30v-248h175v28H63" id="at"/><path fill="#333" d="M194 0L95-120 63-95V0H30v-248h33v124l119-124h40L117-140 236 0h-42" id="au"/><g id="b"><use transform="matrix(0.06172839506172839,0,0,0.06172839506172839,0,0)" xlink:href="#at"/><use transform="matrix(0.06172839506172839,0,0,0.06172839506172839,13.518518518518517,0)" xlink:href="#au"/></g><g id="c"><use transform="matrix(0.06172839506172839,0,0,0.06172839506172839,0,0)" xlink:href="#ah"/><use transform="matrix(0.06172839506172839,0,0,0.06172839506172839,12.345679012345679,0)" xlink:href="#ai"/><use transform="matrix(0.06172839506172839,0,0,0.06172839506172839,19.691358024691358,0)" xlink:href="#aj"/><use transform="matrix(0.06172839506172839,0,0,0.06172839506172839,32.03703703703704,0)" xlink:href="#ak"/><use transform="matrix(0.06172839506172839,0,0,0.06172839506172839,44.382716049382715,0)" xlink:href="#al"/><use transform="matrix(0.06172839506172839,0,0,0.06172839506172839,56.72839506172839,0)" xlink:href="#am"/><use transform="matrix(0.06172839506172839,0,0,0.06172839506172839,67.8395061728395,0)" xlink:href="#an"/><use transform="matrix(0.06172839506172839,0,0,0.06172839506172839,74.01234567901234,0)" xlink:href="#ap"/><use transform="matrix(0.06172839506172839,0,0,0.06172839506172839,86.35802469135803,0)" xlink:href="#aq"/><use transform="matrix(0.06172839506172839,0,0,0.06172839506172839,91.23456790123457,0)" xlink:href="#ak"/></g><path fill="#333" d="M33 0v-248h34V0H33" id="av"/><path fill="#333" d="M190 0L58-211 59 0H30v-248h39L202-35l-2-213h31V0h-41" id="aw"/><path fill="#333" d="M127-220V0H93v-220H8v-28h204v28h-85" id="ax"/><path fill="#333" d="M30 0v-248h187v28H63v79h144v27H63v87h162V0H30" id="ay"/><path fill="#333" d="M143 4C61 4 22-44 18-125c-5-107 100-154 193-111 17 8 29 25 37 43l-32 9c-13-25-37-40-76-40-61 0-88 39-88 99 0 61 29 100 91 101 35 0 62-11 79-27v-45h-74v-28h105v86C228-13 192 4 143 4" id="az"/><path fill="#333" d="M233-177c-1 41-23 64-60 70L243 0h-38l-65-103H63V0H30v-248c88 3 205-21 203 71zM63-129c60-2 137 13 137-47 0-61-80-42-137-45v92" id="aA"/><g id="d"><use transform="matrix(0.06172839506172839,0,0,0.06172839506172839,0,0)" xlink:href="#av"/><use transform="matrix(0.06172839506172839,0,0,0.06172839506172839,6.172839506172839,0)" xlink:href="#aw"/><use transform="matrix(0.06172839506172839,0,0,0.06172839506172839,22.160493827160494,0)" xlink:href="#ax"/><use transform="matrix(0.06172839506172839,0,0,0.06172839506172839,35.67901234567901,0)" xlink:href="#ay"/><use transform="matrix(0.06172839506172839,0,0,0.06172839506172839,50.49382716049382,0)" xlink:href="#az"/><use transform="matrix(0.06172839506172839,0,0,0.06172839506172839,67.77777777777777,0)" xlink:href="#ay"/><use transform="matrix(0.06172839506172839,0,0,0.06172839506172839,82.59259259259258,0)" xlink:href="#aA"/></g><g id="e"><use transform="matrix(0.06172839506172839,0,0,0.06172839506172839,0,0)" xlink:href="#ao"/><use transform="matrix(0.06172839506172839,0,0,0.06172839506172839,11.11111111111111,0)" xlink:href="#an"/><use transform="matrix(0.06172839506172839,0,0,0.06172839506172839,17.28395061728395,0)" xlink:href="#aj"/><use transform="matrix(0.06172839506172839,0,0,0.06172839506172839,29.629629629629626,0)" xlink:href="#ai"/><use transform="matrix(0.06172839506172839,0,0,0.06172839506172839,36.9753086419753,0)" xlink:href="#as"/><use transform="matrix(0.06172839506172839,0,0,0.06172839506172839,49.32098765432098,0)" xlink:href="#ap"/><use transform="matrix(0.06172839506172839,0,0,0.06172839506172839,61.66666666666666,0)" xlink:href="#aq"/><use transform="matrix(0.06172839506172839,0,0,0.06172839506172839,66.5432098765432,0)" xlink:href="#ak"/></g><g id="f"><use transform="matrix(0.06172839506172839,0,0,0.06172839506172839,0,0)" xlink:href="#aw"/><use transform="matrix(0.06172839506172839,0,0,0.06172839506172839,15.987654320987653,0)" xlink:href="#aw"/></g><path fill="#333" d="M145-31C134-9 116 4 85 4 32 4 16-35 15-94c0-59 17-99 70-100 32-1 48 14 60 33 0-11-1-24 2-32h30l-1 268h-32zM93-21c41 0 51-33 51-76s-8-73-50-73c-40 0-46 35-46 75s5 74 45 74" id="aB"/><path fill="#333" d="M141-36C126-15 110 5 73 4 37 3 15-17 15-53c-1-64 63-63 125-63 3-35-9-54-41-54-24 1-41 7-42 31l-33-3c5-37 33-52 76-52 45 0 72 20 72 64v82c-1 20 7 32 28 27v20c-31 9-61-2-59-35zM48-53c0 20 12 33 32 33 41-3 63-29 60-74-43 2-92-5-92 41" id="aC"/><path fill="#333" d="M179-190L93 31C79 59 56 82 12 73V49c39 6 53-20 64-50L1-190h34L92-34l54-156h33" id="aD"/><g id="g"><use transform="matrix(0.06172839506172839,0,0,0.06172839506172839,0,0)" xlink:href="#aB"/><use transform="matrix(0.06172839506172839,0,0,0.06172839506172839,12.345679012345679,0)" xlink:href="#al"/><use transform="matrix(0.06172839506172839,0,0,0.06172839506172839,24.691358024691358,0)" xlink:href="#aC"/><use transform="matrix(0.06172839506172839,0,0,0.06172839506172839,37.03703703703704,0)" xlink:href="#ar"/><use transform="matrix(0.06172839506172839,0,0,0.06172839506172839,49.382716049382715,0)" xlink:href="#an"/><use transform="matrix(0.06172839506172839,0,0,0.06172839506172839,55.55555555555556,0)" xlink:href="#aq"/><use transform="matrix(0.06172839506172839,0,0,0.06172839506172839,60.4320987654321,0)" xlink:href="#an"/><use transform="matrix(0.06172839506172839,0,0,0.06172839506172839,66.60493827160494,0)" xlink:href="#aD"/></g><path fill="#333" d="M206 0h-36l-40-164L89 0H53L-1-190h32L70-26l43-164h34l41 164 42-164h31" id="aE"/><path fill="#333" d="M106-169C34-169 62-67 57 0H25v-261h32l-1 103c12-21 28-36 61-36 89 0 53 116 60 194h-32v-121c2-32-8-49-39-48" id="aF"/><g id="h"><use transform="matrix(0.06172839506172839,0,0,0.06172839506172839,0,0)" xlink:href="#ah"/><use transform="matrix(0.06172839506172839,0,0,0.06172839506172839,12.345679012345679,0)" xlink:href="#ai"/><use transform="matrix(0.06172839506172839,0,0,0.06172839506172839,19.691358024691358,0)" xlink:href="#aj"/><use transform="matrix(0.06172839506172839,0,0,0.06172839506172839,32.03703703703704,0)" xlink:href="#ak"/><use transform="matrix(0.06172839506172839,0,0,0.06172839506172839,44.382716049382715,0)" xlink:href="#al"/><use transform="matrix(0.06172839506172839,0,0,0.06172839506172839,56.72839506172839,0)" xlink:href="#am"/><use transform="matrix(0.06172839506172839,0,0,0.06172839506172839,67.8395061728395,0)" xlink:href="#an"/><use transform="matrix(0.06172839506172839,0,0,0.06172839506172839,74.01234567901234,0)" xlink:href="#ao"/><use transform="matrix(0.06172839506172839,0,0,0.06172839506172839,85.12345679012346,0)" xlink:href="#ap"/><use transform="matrix(0.06172839506172839,0,0,0.06172839506172839,97.46913580246914,0)" xlink:href="#aq"/><use transform="matrix(0.06172839506172839,0,0,0.06172839506172839,102.34567901234568,0)" xlink:href="#ar"/><use transform="matrix(0.06172839506172839,0,0,0.06172839506172839,114.69135802469137,0)" xlink:href="#ap"/><use transform="matrix(0.06172839506172839,0,0,0.06172839506172839,127.03703703703705,0)" xlink:href="#aE"/><use transform="matrix(0.06172839506172839,0,0,0.06172839506172839,143.0246913580247,0)" xlink:href="#aC"/><use transform="matrix(0.06172839506172839,0,0,0.06172839506172839,155.37037037037038,0)" xlink:href="#ai"/><use transform="matrix(0.06172839506172839,0,0,0.06172839506172839,162.71604938271605,0)" xlink:href="#as"/><use transform="matrix(0.06172839506172839,0,0,0.06172839506172839,175.06172839506172,0)" xlink:href="#aF"/><use transform="matrix(0.06172839506172839,0,0,0.06172839506172839,187.4074074074074,0)" xlink:href="#aj"/><use transform="matrix(0.06172839506172839,0,0,0.06172839506172839,199.75308641975306,0)" xlink:href="#al"/><use transform="matrix(0.06172839506172839,0,0,0.06172839506172839,212.09876543209873,0)" xlink:href="#ao"/><use transform="matrix(0.06172839506172839,0,0,0.06172839506172839,223.20987654320984,0)" xlink:href="#as"/><use transform="matrix(0.06172839506172839,0,0,0.06172839506172839,235.55555555555551,0)" xlink:href="#ao"/></g><g id="i"><use transform="matrix(0.06172839506172839,0,0,0.06172839506172839,0,0)" xlink:href="#aE"/><use transform="matrix(0.06172839506172839,0,0,0.06172839506172839,15.987654320987653,0)" xlink:href="#aC"/><use transform="matrix(0.06172839506172839,0,0,0.06172839506172839,28.333333333333332,0)" xlink:href="#ai"/><use transform="matrix(0.06172839506172839,0,0,0.06172839506172839,35.67901234567901,0)" xlink:href="#as"/><use transform="matrix(0.06172839506172839,0,0,0.06172839506172839,48.02469135802469,0)" xlink:href="#aF"/><use transform="matrix(0.06172839506172839,0,0,0.06172839506172839,60.37037037037037,0)" xlink:href="#aj"/><use transform="matrix(0.06172839506172839,0,0,0.06172839506172839,72.71604938271605,0)" xlink:href="#al"/><use transform="matrix(0.06172839506172839,0,0,0.06172839506172839,85.06172839506173,0)" xlink:href="#ao"/><use transform="matrix(0.06172839506172839,0,0,0.06172839506172839,96.17283950617285,0)" xlink:href="#as"/><use transform="matrix(0.06172839506172839,0,0,0.06172839506172839,108.51851851851853,0)" xlink:href="#ap"/><use transform="matrix(0.06172839506172839,0,0,0.06172839506172839,120.86419753086422,0)" xlink:href="#aq"/><use transform="matrix(0.06172839506172839,0,0,0.06172839506172839,125.74074074074076,0)" xlink:href="#ak"/></g><g id="j"><use transform="matrix(0.06172839506172839,0,0,0.06172839506172839,0,0)" xlink:href="#ah"/><use transform="matrix(0.06172839506172839,0,0,0.06172839506172839,12.345679012345679,0)" xlink:href="#ai"/><use transform="matrix(0.06172839506172839,0,0,0.06172839506172839,19.691358024691358,0)" xlink:href="#aj"/><use transform="matrix(0.06172839506172839,0,0,0.06172839506172839,32.03703703703704,0)" xlink:href="#ak"/><use transform="matrix(0.06172839506172839,0,0,0.06172839506172839,44.382716049382715,0)" xlink:href="#al"/><use transform="matrix(0.06172839506172839,0,0,0.06172839506172839,56.72839506172839,0)" xlink:href="#am"/><use transform="matrix(0.06172839506172839,0,0,0.06172839506172839,67.8395061728395,0)" xlink:href="#an"/><use transform="matrix(0.06172839506172839,0,0,0.06172839506172839,74.01234567901234,0)" xlink:href="#ao"/><use transform="matrix(0.06172839506172839,0,0,0.06172839506172839,85.12345679012346,0)" xlink:href="#ap"/><use transform="matrix(0.06172839506172839,0,0,0.06172839506172839,97.46913580246914,0)" xlink:href="#aq"/><use transform="matrix(0.06172839506172839,0,0,0.06172839506172839,102.34567901234568,0)" xlink:href="#ar"/><use transform="matrix(0.06172839506172839,0,0,0.06172839506172839,114.69135802469137,0)" xlink:href="#ap"/><use transform="matrix(0.06172839506172839,0,0,0.06172839506172839,127.03703703703705,0)" xlink:href="#am"/><use transform="matrix(0.06172839506172839,0,0,0.06172839506172839,138.14814814814815,0)" xlink:href="#aC"/><use transform="matrix(0.06172839506172839,0,0,0.06172839506172839,150.49382716049382,0)" xlink:href="#ai"/><use transform="matrix(0.06172839506172839,0,0,0.06172839506172839,157.8395061728395,0)" xlink:href="#an"/><use transform="matrix(0.06172839506172839,0,0,0.06172839506172839,164.01234567901233,0)" xlink:href="#ao"/></g><g id="k"><use transform="matrix(0.06172839506172839,0,0,0.06172839506172839,0,0)" xlink:href="#am"/><use transform="matrix(0.06172839506172839,0,0,0.06172839506172839,11.11111111111111,0)" xlink:href="#aC"/><use transform="matrix(0.06172839506172839,0,0,0.06172839506172839,23.45679012345679,0)" xlink:href="#ai"/><use transform="matrix(0.06172839506172839,0,0,0.06172839506172839,30.80246913580247,0)" xlink:href="#an"/><use transform="matrix(0.06172839506172839,0,0,0.06172839506172839,36.97530864197531,0)" xlink:href="#ap"/><use transform="matrix(0.06172839506172839,0,0,0.06172839506172839,49.32098765432099,0)" xlink:href="#aq"/><use transform="matrix(0.06172839506172839,0,0,0.06172839506172839,54.19753086419753,0)" xlink:href="#ak"/></g><g id="l"><use transform="matrix(0.06172839506172839,0,0,0.06172839506172839,0,0)" xlink:href="#ao"/><use transform="matrix(0.06172839506172839,0,0,0.06172839506172839,11.11111111111111,0)" xlink:href="#an"/><use transform="matrix(0.06172839506172839,0,0,0.06172839506172839,17.28395061728395,0)" xlink:href="#aj"/><use transform="matrix(0.06172839506172839,0,0,0.06172839506172839,29.629629629629626,0)" xlink:href="#ai"/><use transform="matrix(0.06172839506172839,0,0,0.06172839506172839,36.9753086419753,0)" xlink:href="#as"/></g><path fill="#333" d="M30-248c87 1 191-15 191 75 0 78-77 80-158 76V0H30v-248zm33 125c57 0 124 11 124-50 0-59-68-47-124-48v98" id="aG"/><g id="m"><use transform="matrix(0.06172839506172839,0,0,0.06172839506172839,0,0)" xlink:href="#aG"/><use transform="matrix(0.06172839506172839,0,0,0.06172839506172839,14.814814814814813,0)" xlink:href="#au"/></g><g id="n"><use transform="matrix(0.06172839506172839,0,0,0.06172839506172839,0,0)" xlink:href="#aw"/><use transform="matrix(0.06172839506172839,0,0,0.06172839506172839,15.987654320987653,0)" xlink:href="#aw"/></g><g id="o"><use transform="matrix(0.06172839506172839,0,0,0.06172839506172839,0,0)" xlink:href="#aq"/><use transform="matrix(0.06172839506172839,0,0,0.06172839506172839,4.876543209876543,0)" xlink:href="#ak"/></g><g id="p"><use transform="matrix(0.06172839506172839,0,0,0.06172839506172839,0,0)" xlink:href="#am"/><use transform="matrix(0.06172839506172839,0,0,0.06172839506172839,11.11111111111111,0)" xlink:href="#aq"/><use transform="matrix(0.06172839506172839,0,0,0.06172839506172839,15.987654320987653,0)" xlink:href="#an"/><use transform="matrix(0.06172839506172839,0,0,0.06172839506172839,22.160493827160494,0)" xlink:href="#aD"/></g><path fill="#333" d="M137 0h-34L2-248h35l83 218 83-218h36" id="aH"/><path fill="#333" d="M205 0l-28-72H64L36 0H1l101-248h38L239 0h-34zm-38-99l-47-123c-12 45-31 82-46 123h93" id="aI"/><path fill="#333" d="M212-179c-10-28-35-45-73-45-59 0-87 40-87 99 0 60 29 101 89 101 43 0 62-24 78-52l27 14C228-24 195 4 139 4 59 4 22-46 18-125c-6-104 99-153 187-111 19 9 31 26 39 46" id="aJ"/><path fill="#333" d="M197 0v-115H63V0H30v-248h33v105h134v-105h34V0h-34" id="aK"/><path fill="#333" d="M87 75C49 33 22-17 22-94c0-76 28-126 65-167h31c-38 41-64 92-64 168S80 34 118 75H87" id="aL"/><path fill="#333" d="M27 0v-27h64v-190l-56 39v-29l58-41h29v221h61V0H27" id="aM"/><path fill="#333" d="M101-251c68 0 85 55 85 127S166 4 100 4C33 4 14-52 14-124c0-73 17-127 87-127zm-1 229c47 0 54-49 54-102s-4-102-53-102c-51 0-55 48-55 102 0 53 5 102 54 102" id="aN"/><path fill="#333" d="M33-261c38 41 65 92 65 168S71 34 33 75H2C39 34 66-17 66-93S39-220 2-261h31" id="aO"/><g id="q"><use transform="matrix(0.06172839506172839,0,0,0.06172839506172839,0,0)" xlink:href="#aH"/><use transform="matrix(0.06172839506172839,0,0,0.06172839506172839,13.148148148148147,0)" xlink:href="#aI"/><use transform="matrix(0.06172839506172839,0,0,0.06172839506172839,27.962962962962962,0)" xlink:href="#aA"/><use transform="matrix(0.06172839506172839,0,0,0.06172839506172839,43.95061728395061,0)" xlink:href="#aJ"/><use transform="matrix(0.06172839506172839,0,0,0.06172839506172839,59.938271604938265,0)" xlink:href="#aK"/><use transform="matrix(0.06172839506172839,0,0,0.06172839506172839,75.92592592592592,0)" xlink:href="#aI"/><use transform="matrix(0.06172839506172839,0,0,0.06172839506172839,90.74074074074073,0)" xlink:href="#aA"/><use transform="matrix(0.06172839506172839,0,0,0.06172839506172839,106.72839506172839,0)" xlink:href="#aL"/><use transform="matrix(0.06172839506172839,0,0,0.06172839506172839,114.07407407407408,0)" xlink:href="#aM"/><use transform="matrix(0.06172839506172839,0,0,0.06172839506172839,126.41975308641977,0)" xlink:href="#aN"/><use transform="matrix(0.06172839506172839,0,0,0.06172839506172839,138.76543209876544,0)" xlink:href="#aN"/><use transform="matrix(0.06172839506172839,0,0,0.06172839506172839,151.11111111111111,0)" xlink:href="#aO"/></g><g id="r"><use transform="matrix(0.06172839506172839,0,0,0.06172839506172839,0,0)" xlink:href="#aC"/><use transform="matrix(0.06172839506172839,0,0,0.06172839506172839,12.345679012345679,0)" xlink:href="#ak"/><use transform="matrix(0.06172839506172839,0,0,0.06172839506172839,24.691358024691358,0)" xlink:href="#ak"/><use transform="matrix(0.06172839506172839,0,0,0.06172839506172839,37.03703703703704,0)" xlink:href="#ai"/><use transform="matrix(0.06172839506172839,0,0,0.06172839506172839,44.382716049382715,0)" xlink:href="#as"/><use transform="matrix(0.06172839506172839,0,0,0.06172839506172839,56.72839506172839,0)" xlink:href="#ao"/><use transform="matrix(0.06172839506172839,0,0,0.06172839506172839,67.8395061728395,0)" xlink:href="#ao"/></g><path fill="#333" d="M101-251c82-7 93 87 43 132L82-64C71-53 59-42 53-27h129V0H18c2-99 128-94 128-182 0-28-16-43-45-43s-46 15-49 41l-32-3c6-41 34-60 81-64" id="aP"/><g id="s"><use transform="matrix(0.06172839506172839,0,0,0.06172839506172839,0,0)" xlink:href="#aH"/><use transform="matrix(0.06172839506172839,0,0,0.06172839506172839,13.148148148148147,0)" xlink:href="#aI"/><use transform="matrix(0.06172839506172839,0,0,0.06172839506172839,27.962962962962962,0)" xlink:href="#aA"/><use transform="matrix(0.06172839506172839,0,0,0.06172839506172839,43.95061728395061,0)" xlink:href="#aJ"/><use transform="matrix(0.06172839506172839,0,0,0.06172839506172839,59.938271604938265,0)" xlink:href="#aK"/><use transform="matrix(0.06172839506172839,0,0,0.06172839506172839,75.92592592592592,0)" xlink:href="#aI"/><use transform="matrix(0.06172839506172839,0,0,0.06172839506172839,90.74074074074073,0)" xlink:href="#aA"/><use transform="matrix(0.06172839506172839,0,0,0.06172839506172839,106.72839506172839,0)" xlink:href="#aL"/><use transform="matrix(0.06172839506172839,0,0,0.06172839506172839,114.07407407407408,0)" xlink:href="#aP"/><use transform="matrix(0.06172839506172839,0,0,0.06172839506172839,126.41975308641977,0)" xlink:href="#aN"/><use transform="matrix(0.06172839506172839,0,0,0.06172839506172839,138.76543209876544,0)" xlink:href="#aN"/><use transform="matrix(0.06172839506172839,0,0,0.06172839506172839,151.11111111111111,0)" xlink:href="#aO"/></g><path fill="#333" d="M24 0v-261h32V0H24" id="aQ"/><g id="t"><use transform="matrix(0.06172839506172839,0,0,0.06172839506172839,0,0)" xlink:href="#ai"/><use transform="matrix(0.06172839506172839,0,0,0.06172839506172839,7.345679012345679,0)" xlink:href="#as"/><use transform="matrix(0.06172839506172839,0,0,0.06172839506172839,19.691358024691358,0)" xlink:href="#ar"/><use transform="matrix(0.06172839506172839,0,0,0.06172839506172839,32.03703703703704,0)" xlink:href="#an"/><use transform="matrix(0.06172839506172839,0,0,0.06172839506172839,38.20987654320988,0)" xlink:href="#aC"/><use transform="matrix(0.06172839506172839,0,0,0.06172839506172839,50.55555555555556,0)" xlink:href="#aQ"/><use transform="matrix(0.06172839506172839,0,0,0.06172839506172839,55.4320987654321,0)" xlink:href="#ap"/><use transform="matrix(0.06172839506172839,0,0,0.06172839506172839,67.77777777777779,0)" xlink:href="#ah"/><use transform="matrix(0.06172839506172839,0,0,0.06172839506172839,80.12345679012347,0)" xlink:href="#ai"/><use transform="matrix(0.06172839506172839,0,0,0.06172839506172839,87.46913580246915,0)" xlink:href="#aq"/><use transform="matrix(0.06172839506172839,0,0,0.06172839506172839,92.3456790123457,0)" xlink:href="#am"/><use transform="matrix(0.06172839506172839,0,0,0.06172839506172839,103.45679012345681,0)" xlink:href="#as"/></g><path fill="#333" d="M232-93c-1 65-40 97-104 97C67 4 28-28 28-90v-158h33c8 89-33 224 67 224 102 0 64-133 71-224h33v155" id="aR"/><path fill="#333" d="M240 0l2-218c-23 76-54 145-80 218h-23L58-218 59 0H30v-248h44l77 211c21-75 51-140 76-211h43V0h-30" id="aS"/><path fill="#333" d="M134-131c28 9 52 24 51 62-1 50-34 73-85 73S17-19 16-69c0-36 21-54 49-61-75-25-45-126 34-121 46 3 78 18 79 63 0 33-17 51-44 57zm-34-11c31 1 46-15 46-44 0-28-17-43-47-42-29 0-46 13-45 42 1 28 16 44 46 44zm1 122c35 0 51-18 51-52 0-30-18-46-53-46-33 0-51 17-51 47 0 34 19 51 53 51" id="aT"/><path fill="#333" d="M68-38c1 34 0 65-14 84H32c9-13 17-26 17-46H33v-38h35" id="aU"/><g id="u"><use transform="matrix(0.06172839506172839,0,0,0.06172839506172839,0,0)" xlink:href="#aw"/><use transform="matrix(0.06172839506172839,0,0,0.06172839506172839,15.987654320987653,0)" xlink:href="#aR"/><use transform="matrix(0.06172839506172839,0,0,0.06172839506172839,31.975308641975307,0)" xlink:href="#aS"/><use transform="matrix(0.06172839506172839,0,0,0.06172839506172839,50.432098765432094,0)" xlink:href="#ay"/><use transform="matrix(0.06172839506172839,0,0,0.06172839506172839,65.24691358024691,0)" xlink:href="#aA"/><use transform="matrix(0.06172839506172839,0,0,0.06172839506172839,81.23456790123457,0)" xlink:href="#av"/><use transform="matrix(0.06172839506172839,0,0,0.06172839506172839,87.4074074074074,0)" xlink:href="#aJ"/><use transform="matrix(0.06172839506172839,0,0,0.06172839506172839,103.39506172839506,0)" xlink:href="#aL"/><use transform="matrix(0.06172839506172839,0,0,0.06172839506172839,110.74074074074075,0)" xlink:href="#aT"/><use transform="matrix(0.06172839506172839,0,0,0.06172839506172839,123.08641975308643,0)" xlink:href="#aU"/></g><g id="v"><use transform="matrix(0.06172839506172839,0,0,0.06172839506172839,0,0)" xlink:href="#aP"/><use transform="matrix(0.06172839506172839,0,0,0.06172839506172839,12.345679012345679,0)" xlink:href="#aO"/></g><g id="w"><use transform="matrix(0.06172839506172839,0,0,0.06172839506172839,0,0)" xlink:href="#ai"/><use transform="matrix(0.06172839506172839,0,0,0.06172839506172839,7.345679012345679,0)" xlink:href="#as"/><use transform="matrix(0.06172839506172839,0,0,0.06172839506172839,19.691358024691358,0)" xlink:href="#ar"/><use transform="matrix(0.06172839506172839,0,0,0.06172839506172839,32.03703703703704,0)" xlink:href="#an"/><use transform="matrix(0.06172839506172839,0,0,0.06172839506172839,38.20987654320988,0)" xlink:href="#aC"/><use transform="matrix(0.06172839506172839,0,0,0.06172839506172839,50.55555555555556,0)" xlink:href="#aQ"/><use transform="matrix(0.06172839506172839,0,0,0.06172839506172839,55.4320987654321,0)" xlink:href="#ap"/><use transform="matrix(0.06172839506172839,0,0,0.06172839506172839,67.77777777777779,0)" xlink:href="#ao"/><use transform="matrix(0.06172839506172839,0,0,0.06172839506172839,78.8888888888889,0)" xlink:href="#an"/><use transform="matrix(0.06172839506172839,0,0,0.06172839506172839,85.06172839506173,0)" xlink:href="#aC"/><use transform="matrix(0.06172839506172839,0,0,0.06172839506172839,97.40740740740742,0)" xlink:href="#ai"/><use transform="matrix(0.06172839506172839,0,0,0.06172839506172839,104.7530864197531,0)" xlink:href="#an"/><use transform="matrix(0.06172839506172839,0,0,0.06172839506172839,110.92592592592594,0)" xlink:href="#ap"/><use transform="matrix(0.06172839506172839,0,0,0.06172839506172839,123.27160493827162,0)" xlink:href="#ak"/><use transform="matrix(0.06172839506172839,0,0,0.06172839506172839,135.6172839506173,0)" xlink:href="#aC"/><use transform="matrix(0.06172839506172839,0,0,0.06172839506172839,147.96296296296296,0)" xlink:href="#an"/><use transform="matrix(0.06172839506172839,0,0,0.06172839506172839,154.1358024691358,0)" xlink:href="#as"/></g><path fill="#333" d="M30-248c118-7 216 8 213 122C240-48 200 0 122 0H30v-248zM63-27c89 8 146-16 146-99s-60-101-146-95v194" id="aV"/><g id="x"><use transform="matrix(0.06172839506172839,0,0,0.06172839506172839,0,0)" xlink:href="#aV"/><use transform="matrix(0.06172839506172839,0,0,0.06172839506172839,15.987654320987653,0)" xlink:href="#aI"/><use transform="matrix(0.06172839506172839,0,0,0.06172839506172839,29.1358024691358,0)" xlink:href="#ax"/><use transform="matrix(0.06172839506172839,0,0,0.06172839506172839,42.654320987654316,0)" xlink:href="#ay"/></g><g id="y"><use transform="matrix(0.06172839506172839,0,0,0.06172839506172839,0,0)" xlink:href="#ai"/><use transform="matrix(0.06172839506172839,0,0,0.06172839506172839,7.345679012345679,0)" xlink:href="#as"/><use transform="matrix(0.06172839506172839,0,0,0.06172839506172839,19.691358024691358,0)" xlink:href="#ar"/><use transform="matrix(0.06172839506172839,0,0,0.06172839506172839,32.03703703703704,0)" xlink:href="#an"/><use transform="matrix(0.06172839506172839,0,0,0.06172839506172839,38.20987654320988,0)" xlink:href="#aC"/><use transform="matrix(0.06172839506172839,0,0,0.06172839506172839,50.55555555555556,0)" xlink:href="#aQ"/><use transform="matrix(0.06172839506172839,0,0,0.06172839506172839,55.4320987654321,0)" xlink:href="#ap"/><use transform="matrix(0.06172839506172839,0,0,0.06172839506172839,67.77777777777779,0)" xlink:href="#as"/><use transform="matrix(0.06172839506172839,0,0,0.06172839506172839,80.12345679012347,0)" xlink:href="#ar"/><use transform="matrix(0.06172839506172839,0,0,0.06172839506172839,92.46913580246915,0)" xlink:href="#ak"/><use transform="matrix(0.06172839506172839,0,0,0.06172839506172839,104.81481481481484,0)" xlink:href="#ap"/><use transform="matrix(0.06172839506172839,0,0,0.06172839506172839,117.16049382716052,0)" xlink:href="#ak"/><use transform="matrix(0.06172839506172839,0,0,0.06172839506172839,129.5061728395062,0)" xlink:href="#aC"/><use transform="matrix(0.06172839506172839,0,0,0.06172839506172839,141.85185185185188,0)" xlink:href="#an"/><use transform="matrix(0.06172839506172839,0,0,0.06172839506172839,148.0246913580247,0)" xlink:href="#as"/></g><g id="z"><use transform="matrix(0.06172839506172839,0,0,0.06172839506172839,0,0)" xlink:href="#aE"/><use transform="matrix(0.06172839506172839,0,0,0.06172839506172839,15.987654320987653,0)" xlink:href="#aC"/><use transform="matrix(0.06172839506172839,0,0,0.06172839506172839,28.333333333333332,0)" xlink:href="#ai"/><use transform="matrix(0.06172839506172839,0,0,0.06172839506172839,35.67901234567901,0)" xlink:href="#as"/><use transform="matrix(0.06172839506172839,0,0,0.06172839506172839,48.02469135802469,0)" xlink:href="#aF"/><use transform="matrix(0.06172839506172839,0,0,0.06172839506172839,60.37037037037037,0)" xlink:href="#aj"/><use transform="matrix(0.06172839506172839,0,0,0.06172839506172839,72.71604938271605,0)" xlink:href="#al"/><use transform="matrix(0.06172839506172839,0,0,0.06172839506172839,85.06172839506173,0)" xlink:href="#ao"/><use transform="matrix(0.06172839506172839,0,0,0.06172839506172839,96.17283950617285,0)" xlink:href="#as"/></g><g id="A"><use transform="matrix(0.06172839506172839,0,0,0.06172839506172839,0,0)" xlink:href="#aE"/><use transform="matrix(0.06172839506172839,0,0,0.06172839506172839,15.987654320987653,0)" xlink:href="#aC"/><use transform="matrix(0.06172839506172839,0,0,0.06172839506172839,28.333333333333332,0)" xlink:href="#ai"/><use transform="matrix(0.06172839506172839,0,0,0.06172839506172839,35.67901234567901,0)" xlink:href="#as"/><use transform="matrix(0.06172839506172839,0,0,0.06172839506172839,48.02469135802469,0)" xlink:href="#aF"/><use transform="matrix(0.06172839506172839,0,0,0.06172839506172839,60.37037037037037,0)" xlink:href="#aj"/><use transform="matrix(0.06172839506172839,0,0,0.06172839506172839,72.71604938271605,0)" xlink:href="#al"/><use transform="matrix(0.06172839506172839,0,0,0.06172839506172839,85.06172839506173,0)" xlink:href="#ao"/><use transform="matrix(0.06172839506172839,0,0,0.06172839506172839,96.17283950617285,0)" xlink:href="#as"/><use transform="matrix(0.06172839506172839,0,0,0.06172839506172839,108.51851851851853,0)" xlink:href="#ap"/><use transform="matrix(0.06172839506172839,0,0,0.06172839506172839,120.86419753086422,0)" xlink:href="#aC"/><use transform="matrix(0.06172839506172839,0,0,0.06172839506172839,133.2098765432099,0)" xlink:href="#ai"/><use transform="matrix(0.06172839506172839,0,0,0.06172839506172839,140.55555555555557,0)" xlink:href="#as"/><use transform="matrix(0.06172839506172839,0,0,0.06172839506172839,152.90123456790124,0)" xlink:href="#aC"/></g><path fill="#333" d="M108 0H70L1-190h34L89-25l56-165h34" id="aW"/><g id="B"><use transform="matrix(0.06172839506172839,0,0,0.06172839506172839,0,0)" xlink:href="#aW"/><use transform="matrix(0.06172839506172839,0,0,0.06172839506172839,11.11111111111111,0)" xlink:href="#as"/><use transform="matrix(0.06172839506172839,0,0,0.06172839506172839,23.45679012345679,0)" xlink:href="#ar"/><use transform="matrix(0.06172839506172839,0,0,0.06172839506172839,35.80246913580247,0)" xlink:href="#ak"/><use transform="matrix(0.06172839506172839,0,0,0.06172839506172839,48.148148148148145,0)" xlink:href="#aj"/><use transform="matrix(0.06172839506172839,0,0,0.06172839506172839,60.49382716049382,0)" xlink:href="#ai"/></g><path fill="#333" d="M210-169c-67 3-38 105-44 169h-31v-121c0-29-5-50-35-48C34-165 62-65 56 0H25l-1-190h30c1 10-1 24 2 32 10-44 99-50 107 0 11-21 27-35 58-36 85-2 47 119 55 194h-31v-121c0-29-5-49-35-48" id="aX"/><g id="C"><use transform="matrix(0.06172839506172839,0,0,0.06172839506172839,0,0)" xlink:href="#ar"/><use transform="matrix(0.06172839506172839,0,0,0.06172839506172839,12.345679012345679,0)" xlink:href="#aC"/><use transform="matrix(0.06172839506172839,0,0,0.06172839506172839,24.691358024691358,0)" xlink:href="#aX"/><use transform="matrix(0.06172839506172839,0,0,0.06172839506172839,43.148148148148145,0)" xlink:href="#as"/></g><g id="D"><use transform="matrix(0.06172839506172839,0,0,0.06172839506172839,0,0)" xlink:href="#am"/><use transform="matrix(0.06172839506172839,0,0,0.06172839506172839,11.11111111111111,0)" xlink:href="#aj"/><use transform="matrix(0.06172839506172839,0,0,0.06172839506172839,23.45679012345679,0)" xlink:href="#ar"/><use transform="matrix(0.06172839506172839,0,0,0.06172839506172839,35.80246913580247,0)" xlink:href="#an"/><use transform="matrix(0.06172839506172839,0,0,0.06172839506172839,41.97530864197531,0)" xlink:href="#ai"/><use transform="matrix(0.06172839506172839,0,0,0.06172839506172839,49.32098765432099,0)" xlink:href="#aC"/><use transform="matrix(0.06172839506172839,0,0,0.06172839506172839,61.666666666666664,0)" xlink:href="#am"/><use transform="matrix(0.06172839506172839,0,0,0.06172839506172839,72.77777777777777,0)" xlink:href="#an"/><use transform="matrix(0.06172839506172839,0,0,0.06172839506172839,78.9506172839506,0)" xlink:href="#ap"/><use transform="matrix(0.06172839506172839,0,0,0.06172839506172839,91.29629629629629,0)" xlink:href="#ao"/><use transform="matrix(0.06172839506172839,0,0,0.06172839506172839,102.4074074074074,0)" xlink:href="#an"/><use transform="matrix(0.06172839506172839,0,0,0.06172839506172839,108.58024691358024,0)" xlink:href="#aC"/><use transform="matrix(0.06172839506172839,0,0,0.06172839506172839,120.92592592592592,0)" xlink:href="#ai"/><use transform="matrix(0.06172839506172839,0,0,0.06172839506172839,128.2716049382716,0)" xlink:href="#an"/><use transform="matrix(0.06172839506172839,0,0,0.06172839506172839,134.44444444444443,0)" xlink:href="#ap"/><use transform="matrix(0.06172839506172839,0,0,0.06172839506172839,146.7901234567901,0)" xlink:href="#ak"/><use transform="matrix(0.06172839506172839,0,0,0.06172839506172839,159.13580246913577,0)" xlink:href="#aC"/><use transform="matrix(0.06172839506172839,0,0,0.06172839506172839,171.48148148148144,0)" xlink:href="#an"/><use transform="matrix(0.06172839506172839,0,0,0.06172839506172839,177.65432098765427,0)" xlink:href="#as"/></g><g id="E"><use transform="matrix(0.06172839506172839,0,0,0.06172839506172839,0,0)" xlink:href="#am"/><use transform="matrix(0.06172839506172839,0,0,0.06172839506172839,11.11111111111111,0)" xlink:href="#aj"/><use transform="matrix(0.06172839506172839,0,0,0.06172839506172839,23.45679012345679,0)" xlink:href="#ar"/><use transform="matrix(0.06172839506172839,0,0,0.06172839506172839,35.80246913580247,0)" xlink:href="#an"/><use transform="matrix(0.06172839506172839,0,0,0.06172839506172839,41.97530864197531,0)" xlink:href="#ai"/><use transform="matrix(0.06172839506172839,0,0,0.06172839506172839,49.32098765432099,0)" xlink:href="#aC"/><use transform="matrix(0.06172839506172839,0,0,0.06172839506172839,61.666666666666664,0)" xlink:href="#am"/><use transform="matrix(0.06172839506172839,0,0,0.06172839506172839,72.77777777777777,0)" xlink:href="#an"/><use transform="matrix(0.06172839506172839,0,0,0.06172839506172839,78.9506172839506,0)" xlink:href="#ap"/><use transform="matrix(0.06172839506172839,0,0,0.06172839506172839,91.29629629629629,0)" xlink:href="#as"/><use transform="matrix(0.06172839506172839,0,0,0.06172839506172839,103.64197530864197,0)" xlink:href="#ar"/><use transform="matrix(0.06172839506172839,0,0,0.06172839506172839,115.98765432098766,0)" xlink:href="#ak"/><use transform="matrix(0.06172839506172839,0,0,0.06172839506172839,128.33333333333334,0)" xlink:href="#ap"/><use transform="matrix(0.06172839506172839,0,0,0.06172839506172839,140.679012345679,0)" xlink:href="#ak"/><use transform="matrix(0.06172839506172839,0,0,0.06172839506172839,153.02469135802468,0)" xlink:href="#aC"/><use transform="matrix(0.06172839506172839,0,0,0.06172839506172839,165.37037037037035,0)" xlink:href="#an"/><use transform="matrix(0.06172839506172839,0,0,0.06172839506172839,171.5432098765432,0)" xlink:href="#as"/></g><g id="F"><use transform="matrix(0.06172839506172839,0,0,0.06172839506172839,0,0)" xlink:href="#am"/><use transform="matrix(0.06172839506172839,0,0,0.06172839506172839,11.11111111111111,0)" xlink:href="#aC"/><use transform="matrix(0.06172839506172839,0,0,0.06172839506172839,23.45679012345679,0)" xlink:href="#ai"/><use transform="matrix(0.06172839506172839,0,0,0.06172839506172839,30.80246913580247,0)" xlink:href="#an"/></g><g id="G"><use transform="matrix(0.06172839506172839,0,0,0.06172839506172839,0,0)" xlink:href="#aj"/><use transform="matrix(0.06172839506172839,0,0,0.06172839506172839,12.345679012345679,0)" xlink:href="#ai"/><use transform="matrix(0.06172839506172839,0,0,0.06172839506172839,19.691358024691358,0)" xlink:href="#ak"/><use transform="matrix(0.06172839506172839,0,0,0.06172839506172839,32.03703703703704,0)" xlink:href="#as"/><use transform="matrix(0.06172839506172839,0,0,0.06172839506172839,44.382716049382715,0)" xlink:href="#ai"/><use transform="matrix(0.06172839506172839,0,0,0.06172839506172839,51.72839506172839,0)" xlink:href="#ap"/><use transform="matrix(0.06172839506172839,0,0,0.06172839506172839,64.07407407407408,0)" xlink:href="#ak"/><use transform="matrix(0.06172839506172839,0,0,0.06172839506172839,76.41975308641976,0)" xlink:href="#aC"/><use transform="matrix(0.06172839506172839,0,0,0.06172839506172839,88.76543209876544,0)" xlink:href="#an"/><use transform="matrix(0.06172839506172839,0,0,0.06172839506172839,94.93827160493828,0)" xlink:href="#as"/></g><path fill="#333" d="M177-190C167-65 218 103 67 71c-23-6-38-20-44-43l32-5c15 47 100 32 89-28v-30C133-14 115 1 83 1 29 1 15-40 15-95c0-56 16-97 71-98 29-1 48 16 59 35 1-10 0-23 2-32h30zM94-22c36 0 50-32 50-73 0-42-14-75-50-75-39 0-46 34-46 75s6 73 46 73" id="aY"/><g id="H"><use transform="matrix(0.06172839506172839,0,0,0.06172839506172839,0,0)" xlink:href="#ai"/><use transform="matrix(0.06172839506172839,0,0,0.06172839506172839,7.345679012345679,0)" xlink:href="#aC"/><use transform="matrix(0.06172839506172839,0,0,0.06172839506172839,19.691358024691358,0)" xlink:href="#an"/><use transform="matrix(0.06172839506172839,0,0,0.06172839506172839,25.864197530864196,0)" xlink:href="#aq"/><use transform="matrix(0.06172839506172839,0,0,0.06172839506172839,30.74074074074074,0)" xlink:href="#ar"/><use transform="matrix(0.06172839506172839,0,0,0.06172839506172839,43.08641975308642,0)" xlink:href="#aY"/></g><path fill="#333" d="M101-234c-31-9-42 10-38 44h38v23H63V0H32v-167H5v-23h27c-7-52 17-82 69-68v24" id="aZ"/><path fill="#333" d="M115-194c53 0 69 39 70 98 0 66-23 100-70 100C84 3 66-7 56-30L54 0H23l1-261h32v101c10-23 28-34 59-34zm-8 174c40 0 45-34 45-75 0-40-5-75-45-74-42 0-51 32-51 76 0 43 10 73 51 73" id="ba"/><path fill="#333" d="M143 0L79-87 56-68V0H24v-261h32v163l83-92h37l-77 82L181 0h-38" id="bb"/><g id="I"><use transform="matrix(0.06172839506172839,0,0,0.06172839506172839,0,0)" xlink:href="#aZ"/><use transform="matrix(0.06172839506172839,0,0,0.06172839506172839,6.172839506172839,0)" xlink:href="#as"/><use transform="matrix(0.06172839506172839,0,0,0.06172839506172839,18.51851851851852,0)" xlink:href="#as"/><use transform="matrix(0.06172839506172839,0,0,0.06172839506172839,30.864197530864196,0)" xlink:href="#ak"/><use transform="matrix(0.06172839506172839,0,0,0.06172839506172839,43.20987654320987,0)" xlink:href="#ba"/><use transform="matrix(0.06172839506172839,0,0,0.06172839506172839,55.55555555555555,0)" xlink:href="#aC"/><use transform="matrix(0.06172839506172839,0,0,0.06172839506172839,67.90123456790123,0)" xlink:href="#am"/><use transform="matrix(0.06172839506172839,0,0,0.06172839506172839,79.01234567901234,0)" xlink:href="#bb"/></g><path fill="#333" d="M54-142c48-35 137-8 131 61C196 18 31 33 14-55l32-4c7 23 22 37 52 37 35-1 51-22 54-58 4-55-73-65-99-34H22l8-134h141v27H59" id="bc"/><g id="J"><use transform="matrix(0.06172839506172839,0,0,0.06172839506172839,0,0)" xlink:href="#aH"/><use transform="matrix(0.06172839506172839,0,0,0.06172839506172839,13.148148148148147,0)" xlink:href="#aI"/><use transform="matrix(0.06172839506172839,0,0,0.06172839506172839,27.962962962962962,0)" xlink:href="#aA"/><use transform="matrix(0.06172839506172839,0,0,0.06172839506172839,43.95061728395061,0)" xlink:href="#aJ"/><use transform="matrix(0.06172839506172839,0,0,0.06172839506172839,59.938271604938265,0)" xlink:href="#aK"/><use transform="matrix(0.06172839506172839,0,0,0.06172839506172839,75.92592592592592,0)" xlink:href="#aI"/><use transform="matrix(0.06172839506172839,0,0,0.06172839506172839,90.74074074074073,0)" xlink:href="#aA"/><use transform="matrix(0.06172839506172839,0,0,0.06172839506172839,106.72839506172839,0)" xlink:href="#aL"/><use transform="matrix(0.06172839506172839,0,0,0.06172839506172839,114.07407407407408,0)" xlink:href="#bc"/><use transform="matrix(0.06172839506172839,0,0,0.06172839506172839,126.41975308641977,0)" xlink:href="#aN"/><use transform="matrix(0.06172839506172839,0,0,0.06172839506172839,138.76543209876544,0)" xlink:href="#aN"/><use transform="matrix(0.06172839506172839,0,0,0.06172839506172839,151.11111111111111,0)" xlink:href="#aO"/></g><g id="K"><use transform="matrix(0.06172839506172839,0,0,0.06172839506172839,0,0)" xlink:href="#am"/><use transform="matrix(0.06172839506172839,0,0,0.06172839506172839,11.11111111111111,0)" xlink:href="#al"/><use transform="matrix(0.06172839506172839,0,0,0.06172839506172839,23.45679012345679,0)" xlink:href="#ao"/><use transform="matrix(0.06172839506172839,0,0,0.06172839506172839,34.5679012345679,0)" xlink:href="#an"/><use transform="matrix(0.06172839506172839,0,0,0.06172839506172839,40.74074074074074,0)" xlink:href="#aj"/><use transform="matrix(0.06172839506172839,0,0,0.06172839506172839,53.08641975308642,0)" xlink:href="#aX"/><use transform="matrix(0.06172839506172839,0,0,0.06172839506172839,71.5432098765432,0)" xlink:href="#as"/><use transform="matrix(0.06172839506172839,0,0,0.06172839506172839,83.88888888888889,0)" xlink:href="#ai"/><use transform="matrix(0.06172839506172839,0,0,0.06172839506172839,91.23456790123457,0)" xlink:href="#ap"/><use transform="matrix(0.06172839506172839,0,0,0.06172839506172839,103.58024691358025,0)" xlink:href="#aq"/><use transform="matrix(0.06172839506172839,0,0,0.06172839506172839,108.4567901234568,0)" xlink:href="#ak"/></g><g id="L"><use transform="matrix(0.06172839506172839,0,0,0.06172839506172839,0,0)" xlink:href="#am"/><use transform="matrix(0.06172839506172839,0,0,0.06172839506172839,11.11111111111111,0)" xlink:href="#al"/><use transform="matrix(0.06172839506172839,0,0,0.06172839506172839,23.45679012345679,0)" xlink:href="#ao"/><use transform="matrix(0.06172839506172839,0,0,0.06172839506172839,34.5679012345679,0)" xlink:href="#an"/><use transform="matrix(0.06172839506172839,0,0,0.06172839506172839,40.74074074074074,0)" xlink:href="#aj"/><use transform="matrix(0.06172839506172839,0,0,0.06172839506172839,53.08641975308642,0)" xlink:href="#aX"/><use transform="matrix(0.06172839506172839,0,0,0.06172839506172839,71.5432098765432,0)" xlink:href="#as"/><use transform="matrix(0.06172839506172839,0,0,0.06172839506172839,83.88888888888889,0)" xlink:href="#ai"/></g><g id="M"><use transform="matrix(0.06172839506172839,0,0,0.06172839506172839,0,0)" xlink:href="#ak"/><use transform="matrix(0.06172839506172839,0,0,0.06172839506172839,12.345679012345679,0)" xlink:href="#aq"/><use transform="matrix(0.06172839506172839,0,0,0.06172839506172839,17.22222222222222,0)" xlink:href="#ao"/><use transform="matrix(0.06172839506172839,0,0,0.06172839506172839,28.333333333333332,0)" xlink:href="#am"/><use transform="matrix(0.06172839506172839,0,0,0.06172839506172839,39.44444444444444,0)" xlink:href="#aj"/><use transform="matrix(0.06172839506172839,0,0,0.06172839506172839,51.79012345679012,0)" xlink:href="#al"/><use transform="matrix(0.06172839506172839,0,0,0.06172839506172839,64.1358024691358,0)" xlink:href="#ar"/><use transform="matrix(0.06172839506172839,0,0,0.06172839506172839,76.48148148148148,0)" xlink:href="#an"/><use transform="matrix(0.06172839506172839,0,0,0.06172839506172839,82.65432098765432,0)" xlink:href="#ap"/><use transform="matrix(0.06172839506172839,0,0,0.06172839506172839,95,0)" xlink:href="#am"/><use transform="matrix(0.06172839506172839,0,0,0.06172839506172839,106.11111111111111,0)" xlink:href="#aC"/><use transform="matrix(0.06172839506172839,0,0,0.06172839506172839,118.4567901234568,0)" xlink:href="#ai"/><use transform="matrix(0.06172839506172839,0,0,0.06172839506172839,125.80246913580248,0)" xlink:href="#ak"/></g><path fill="#333" d="M160-131c35 5 61 23 61 61C221 17 115-2 30 0v-248c76 3 177-17 177 60 0 33-19 50-47 57zm-97-11c50-1 110 9 110-42 0-47-63-36-110-37v79zm0 115c55-2 124 14 124-45 0-56-70-42-124-44v89" id="bd"/><path fill="#333" d="M140-251c81 0 123 46 123 126C263-46 219 4 140 4 59 4 17-45 17-125s42-126 123-126zm0 227c63 0 89-41 89-101s-29-99-89-99c-61 0-89 39-89 99S79-25 140-24" id="be"/><path fill="#333" d="M30 0v-248h33v221h125V0H30" id="bf"/><g id="N"><use transform="matrix(0.06172839506172839,0,0,0.06172839506172839,0,0)" xlink:href="#bd"/><use transform="matrix(0.06172839506172839,0,0,0.06172839506172839,14.814814814814813,0)" xlink:href="#be"/><use transform="matrix(0.06172839506172839,0,0,0.06172839506172839,32.09876543209876,0)" xlink:href="#be"/><use transform="matrix(0.06172839506172839,0,0,0.06172839506172839,49.38271604938271,0)" xlink:href="#bf"/><use transform="matrix(0.06172839506172839,0,0,0.06172839506172839,61.728395061728385,0)" xlink:href="#ay"/><use transform="matrix(0.06172839506172839,0,0,0.06172839506172839,76.5432098765432,0)" xlink:href="#aI"/><use transform="matrix(0.06172839506172839,0,0,0.06172839506172839,91.35802469135801,0)" xlink:href="#aw"/></g><g id="O"><use transform="matrix(0.06172839506172839,0,0,0.06172839506172839,0,0)" xlink:href="#ah"/><use transform="matrix(0.06172839506172839,0,0,0.06172839506172839,12.345679012345679,0)" xlink:href="#as"/><use transform="matrix(0.06172839506172839,0,0,0.06172839506172839,24.691358024691358,0)" xlink:href="#ai"/><use transform="matrix(0.06172839506172839,0,0,0.06172839506172839,32.03703703703704,0)" xlink:href="#ao"/><use transform="matrix(0.06172839506172839,0,0,0.06172839506172839,43.14814814814815,0)" xlink:href="#aj"/><use transform="matrix(0.06172839506172839,0,0,0.06172839506172839,55.49382716049383,0)" xlink:href="#ar"/><use transform="matrix(0.06172839506172839,0,0,0.06172839506172839,67.8395061728395,0)" xlink:href="#aC"/><use transform="matrix(0.06172839506172839,0,0,0.06172839506172839,80.18518518518519,0)" xlink:href="#aQ"/><use transform="matrix(0.06172839506172839,0,0,0.06172839506172839,85.06172839506173,0)" xlink:href="#ap"/><use transform="matrix(0.06172839506172839,0,0,0.06172839506172839,97.40740740740742,0)" xlink:href="#ak"/><use transform="matrix(0.06172839506172839,0,0,0.06172839506172839,109.7530864197531,0)" xlink:href="#aC"/><use transform="matrix(0.06172839506172839,0,0,0.06172839506172839,122.09876543209879,0)" xlink:href="#an"/><use transform="matrix(0.06172839506172839,0,0,0.06172839506172839,128.27160493827162,0)" xlink:href="#aC"/><use transform="matrix(0.06172839506172839,0,0,0.06172839506172839,140.6172839506173,0)" xlink:href="#ap"/><use transform="matrix(0.06172839506172839,0,0,0.06172839506172839,152.96296296296296,0)" xlink:href="#aq"/><use transform="matrix(0.06172839506172839,0,0,0.06172839506172839,157.8395061728395,0)" xlink:href="#ak"/></g><g id="P"><use transform="matrix(0.06172839506172839,0,0,0.06172839506172839,0,0)" xlink:href="#ah"/><use transform="matrix(0.06172839506172839,0,0,0.06172839506172839,12.345679012345679,0)" xlink:href="#ai"/><use transform="matrix(0.06172839506172839,0,0,0.06172839506172839,19.691358024691358,0)" xlink:href="#aj"/><use transform="matrix(0.06172839506172839,0,0,0.06172839506172839,32.03703703703704,0)" xlink:href="#ak"/><use transform="matrix(0.06172839506172839,0,0,0.06172839506172839,44.382716049382715,0)" xlink:href="#al"/><use transform="matrix(0.06172839506172839,0,0,0.06172839506172839,56.72839506172839,0)" xlink:href="#am"/><use transform="matrix(0.06172839506172839,0,0,0.06172839506172839,67.8395061728395,0)" xlink:href="#an"/></g><g id="Q"><use transform="matrix(0.06172839506172839,0,0,0.06172839506172839,0,0)" xlink:href="#ah"/><use transform="matrix(0.06172839506172839,0,0,0.06172839506172839,12.345679012345679,0)" xlink:href="#ai"/><use transform="matrix(0.06172839506172839,0,0,0.06172839506172839,19.691358024691358,0)" xlink:href="#aj"/><use transform="matrix(0.06172839506172839,0,0,0.06172839506172839,32.03703703703704,0)" xlink:href="#ak"/><use transform="matrix(0.06172839506172839,0,0,0.06172839506172839,44.382716049382715,0)" xlink:href="#al"/><use transform="matrix(0.06172839506172839,0,0,0.06172839506172839,56.72839506172839,0)" xlink:href="#am"/><use transform="matrix(0.06172839506172839,0,0,0.06172839506172839,67.8395061728395,0)" xlink:href="#an"/><use transform="matrix(0.06172839506172839,0,0,0.06172839506172839,74.01234567901234,0)" xlink:href="#ap"/><use transform="matrix(0.06172839506172839,0,0,0.06172839506172839,86.35802469135803,0)" xlink:href="#ar"/><use transform="matrix(0.06172839506172839,0,0,0.06172839506172839,98.70370370370371,0)" xlink:href="#aC"/><use transform="matrix(0.06172839506172839,0,0,0.06172839506172839,111.0493827160494,0)" xlink:href="#aX"/><use transform="matrix(0.06172839506172839,0,0,0.06172839506172839,129.50617283950618,0)" xlink:href="#as"/></g><g id="R"><use transform="matrix(0.06172839506172839,0,0,0.06172839506172839,0,0)" xlink:href="#ah"/><use transform="matrix(0.06172839506172839,0,0,0.06172839506172839,12.345679012345679,0)" xlink:href="#al"/><use transform="matrix(0.06172839506172839,0,0,0.06172839506172839,24.691358024691358,0)" xlink:href="#ai"/><use transform="matrix(0.06172839506172839,0,0,0.06172839506172839,32.03703703703704,0)" xlink:href="#am"/><use transform="matrix(0.06172839506172839,0,0,0.06172839506172839,43.14814814814815,0)" xlink:href="#aF"/><use transform="matrix(0.06172839506172839,0,0,0.06172839506172839,55.49382716049383,0)" xlink:href="#aC"/><use transform="matrix(0.06172839506172839,0,0,0.06172839506172839,67.8395061728395,0)" xlink:href="#ao"/><use transform="matrix(0.06172839506172839,0,0,0.06172839506172839,78.95061728395062,0)" xlink:href="#as"/><use transform="matrix(0.06172839506172839,0,0,0.06172839506172839,91.2962962962963,0)" xlink:href="#ap"/><use transform="matrix(0.06172839506172839,0,0,0.06172839506172839,103.64197530864199,0)" xlink:href="#ah"/><use transform="matrix(0.06172839506172839,0,0,0.06172839506172839,115.98765432098767,0)" xlink:href="#ai"/><use transform="matrix(0.06172839506172839,0,0,0.06172839506172839,123.33333333333336,0)" xlink:href="#aq"/><use transform="matrix(0.06172839506172839,0,0,0.06172839506172839,128.2098765432099,0)" xlink:href="#am"/><use transform="matrix(0.06172839506172839,0,0,0.06172839506172839,139.32098765432102,0)" xlink:href="#as"/></g><path fill="#333" d="M64 0c3-98 48-159 88-221H18v-27h164v26C143-157 98-101 97 0H64" id="bg"/><g id="S"><use transform="matrix(0.06172839506172839,0,0,0.06172839506172839,0,0)" xlink:href="#aw"/><use transform="matrix(0.06172839506172839,0,0,0.06172839506172839,15.987654320987653,0)" xlink:href="#aR"/><use transform="matrix(0.06172839506172839,0,0,0.06172839506172839,31.975308641975307,0)" xlink:href="#aS"/><use transform="matrix(0.06172839506172839,0,0,0.06172839506172839,50.432098765432094,0)" xlink:href="#ay"/><use transform="matrix(0.06172839506172839,0,0,0.06172839506172839,65.24691358024691,0)" xlink:href="#aA"/><use transform="matrix(0.06172839506172839,0,0,0.06172839506172839,81.23456790123457,0)" xlink:href="#av"/><use transform="matrix(0.06172839506172839,0,0,0.06172839506172839,87.4074074074074,0)" xlink:href="#aJ"/><use transform="matrix(0.06172839506172839,0,0,0.06172839506172839,103.39506172839506,0)" xlink:href="#aL"/><use transform="matrix(0.06172839506172839,0,0,0.06172839506172839,110.74074074074075,0)" xlink:href="#bg"/><use transform="matrix(0.06172839506172839,0,0,0.06172839506172839,123.08641975308643,0)" xlink:href="#aU"/></g><g id="T"><use transform="matrix(0.06172839506172839,0,0,0.06172839506172839,0,0)" xlink:href="#ai"/><use transform="matrix(0.06172839506172839,0,0,0.06172839506172839,7.345679012345679,0)" xlink:href="#as"/><use transform="matrix(0.06172839506172839,0,0,0.06172839506172839,19.691358024691358,0)" xlink:href="#an"/><use transform="matrix(0.06172839506172839,0,0,0.06172839506172839,25.864197530864196,0)" xlink:href="#aC"/><use transform="matrix(0.06172839506172839,0,0,0.06172839506172839,38.20987654320987,0)" xlink:href="#aq"/><use transform="matrix(0.06172839506172839,0,0,0.06172839506172839,43.08641975308642,0)" xlink:href="#aQ"/><use transform="matrix(0.06172839506172839,0,0,0.06172839506172839,47.96296296296296,0)" xlink:href="#ap"/><use transform="matrix(0.06172839506172839,0,0,0.06172839506172839,60.30864197530864,0)" xlink:href="#ah"/><use transform="matrix(0.06172839506172839,0,0,0.06172839506172839,72.65432098765432,0)" xlink:href="#ai"/><use transform="matrix(0.06172839506172839,0,0,0.06172839506172839,80,0)" xlink:href="#aq"/><use transform="matrix(0.06172839506172839,0,0,0.06172839506172839,84.87654320987654,0)" xlink:href="#am"/><use transform="matrix(0.06172839506172839,0,0,0.06172839506172839,95.98765432098766,0)" xlink:href="#as"/></g><g id="U"><use transform="matrix(0.06172839506172839,0,0,0.06172839506172839,0,0)" xlink:href="#aW"/><use transform="matrix(0.06172839506172839,0,0,0.06172839506172839,11.11111111111111,0)" xlink:href="#as"/><use transform="matrix(0.06172839506172839,0,0,0.06172839506172839,23.45679012345679,0)" xlink:href="#ar"/><use transform="matrix(0.06172839506172839,0,0,0.06172839506172839,35.80246913580247,0)" xlink:href="#ak"/><use transform="matrix(0.06172839506172839,0,0,0.06172839506172839,48.148148148148145,0)" xlink:href="#aj"/><use transform="matrix(0.06172839506172839,0,0,0.06172839506172839,60.49382716049382,0)" xlink:href="#ai"/><use transform="matrix(0.06172839506172839,0,0,0.06172839506172839,67.8395061728395,0)" xlink:href="#ap"/><use transform="matrix(0.06172839506172839,0,0,0.06172839506172839,80.18518518518519,0)" xlink:href="#aq"/><use transform="matrix(0.06172839506172839,0,0,0.06172839506172839,85.06172839506173,0)" xlink:href="#ak"/></g><g id="V"><use transform="matrix(0.06172839506172839,0,0,0.06172839506172839,0,0)" xlink:href="#ao"/><use transform="matrix(0.06172839506172839,0,0,0.06172839506172839,11.11111111111111,0)" xlink:href="#as"/><use transform="matrix(0.06172839506172839,0,0,0.06172839506172839,23.45679012345679,0)" xlink:href="#aQ"/><use transform="matrix(0.06172839506172839,0,0,0.06172839506172839,28.333333333333336,0)" xlink:href="#aQ"/><use transform="matrix(0.06172839506172839,0,0,0.06172839506172839,33.20987654320988,0)" xlink:href="#as"/><use transform="matrix(0.06172839506172839,0,0,0.06172839506172839,45.55555555555556,0)" xlink:href="#ai"/></g><g id="W"><use transform="matrix(0.06172839506172839,0,0,0.06172839506172839,0,0)" xlink:href="#ao"/><use transform="matrix(0.06172839506172839,0,0,0.06172839506172839,11.11111111111111,0)" xlink:href="#aC"/><use transform="matrix(0.06172839506172839,0,0,0.06172839506172839,23.45679012345679,0)" xlink:href="#aQ"/><use transform="matrix(0.06172839506172839,0,0,0.06172839506172839,28.333333333333336,0)" xlink:href="#aC"/><use transform="matrix(0.06172839506172839,0,0,0.06172839506172839,40.67901234567901,0)" xlink:href="#ai"/><use transform="matrix(0.06172839506172839,0,0,0.06172839506172839,48.02469135802469,0)" xlink:href="#aD"/></g><g id="X"><use transform="matrix(0.06172839506172839,0,0,0.06172839506172839,0,0)" xlink:href="#aE"/><use transform="matrix(0.06172839506172839,0,0,0.06172839506172839,15.987654320987653,0)" xlink:href="#aj"/><use transform="matrix(0.06172839506172839,0,0,0.06172839506172839,28.333333333333332,0)" xlink:href="#ai"/><use transform="matrix(0.06172839506172839,0,0,0.06172839506172839,35.67901234567901,0)" xlink:href="#bb"/><use transform="matrix(0.06172839506172839,0,0,0.06172839506172839,46.79012345679013,0)" xlink:href="#aq"/><use transform="matrix(0.06172839506172839,0,0,0.06172839506172839,51.66666666666667,0)" xlink:href="#ar"/><use transform="matrix(0.06172839506172839,0,0,0.06172839506172839,64.01234567901236,0)" xlink:href="#aY"/><use transform="matrix(0.06172839506172839,0,0,0.06172839506172839,76.35802469135804,0)" xlink:href="#ap"/><use transform="matrix(0.06172839506172839,0,0,0.06172839506172839,88.70370370370372,0)" xlink:href="#as"/><use transform="matrix(0.06172839506172839,0,0,0.06172839506172839,101.04938271604941,0)" xlink:href="#aX"/><use transform="matrix(0.06172839506172839,0,0,0.06172839506172839,119.50617283950619,0)" xlink:href="#aC"/><use transform="matrix(0.06172839506172839,0,0,0.06172839506172839,131.85185185185188,0)" xlink:href="#aq"/><use transform="matrix(0.06172839506172839,0,0,0.06172839506172839,136.7283950617284,0)" xlink:href="#aQ"/><use transform="matrix(0.06172839506172839,0,0,0.06172839506172839,141.60493827160494,0)" xlink:href="#ap"/><use transform="matrix(0.06172839506172839,0,0,0.06172839506172839,153.9506172839506,0)" xlink:href="#aC"/><use transform="matrix(0.06172839506172839,0,0,0.06172839506172839,166.29629629629628,0)" xlink:href="#ak"/><use transform="matrix(0.06172839506172839,0,0,0.06172839506172839,178.64197530864195,0)" xlink:href="#ak"/><use transform="matrix(0.06172839506172839,0,0,0.06172839506172839,190.98765432098762,0)" xlink:href="#ai"/><use transform="matrix(0.06172839506172839,0,0,0.06172839506172839,198.3333333333333,0)" xlink:href="#as"/><use transform="matrix(0.06172839506172839,0,0,0.06172839506172839,210.67901234567896,0)" xlink:href="#ao"/><use transform="matrix(0.06172839506172839,0,0,0.06172839506172839,221.79012345679007,0)" xlink:href="#ao"/></g><g id="Y"><use transform="matrix(0.06172839506172839,0,0,0.06172839506172839,0,0)" xlink:href="#aE"/><use transform="matrix(0.06172839506172839,0,0,0.06172839506172839,15.987654320987653,0)" xlink:href="#aj"/><use transform="matrix(0.06172839506172839,0,0,0.06172839506172839,28.333333333333332,0)" xlink:href="#ai"/><use transform="matrix(0.06172839506172839,0,0,0.06172839506172839,35.67901234567901,0)" xlink:href="#bb"/><use transform="matrix(0.06172839506172839,0,0,0.06172839506172839,46.79012345679013,0)" xlink:href="#as"/><use transform="matrix(0.06172839506172839,0,0,0.06172839506172839,59.135802469135804,0)" xlink:href="#ai"/></g><g id="Z"><use transform="matrix(0.06172839506172839,0,0,0.06172839506172839,0,0)" xlink:href="#ah"/><use transform="matrix(0.06172839506172839,0,0,0.06172839506172839,12.345679012345679,0)" xlink:href="#as"/><use transform="matrix(0.06172839506172839,0,0,0.06172839506172839,24.691358024691358,0)" xlink:href="#ai"/><use transform="matrix(0.06172839506172839,0,0,0.06172839506172839,32.03703703703704,0)" xlink:href="#ao"/><use transform="matrix(0.06172839506172839,0,0,0.06172839506172839,43.14814814814815,0)" xlink:href="#aj"/><use transform="matrix(0.06172839506172839,0,0,0.06172839506172839,55.49382716049383,0)" xlink:href="#ar"/><use transform="matrix(0.06172839506172839,0,0,0.06172839506172839,67.8395061728395,0)" xlink:href="#aC"/><use transform="matrix(0.06172839506172839,0,0,0.06172839506172839,80.18518518518519,0)" xlink:href="#aQ"/><use transform="matrix(0.06172839506172839,0,0,0.06172839506172839,85.06172839506173,0)" xlink:href="#ap"/><use transform="matrix(0.06172839506172839,0,0,0.06172839506172839,97.40740740740742,0)" xlink:href="#ak"/><use transform="matrix(0.06172839506172839,0,0,0.06172839506172839,109.7530864197531,0)" xlink:href="#aC"/><use transform="matrix(0.06172839506172839,0,0,0.06172839506172839,122.09876543209879,0)" xlink:href="#an"/><use transform="matrix(0.06172839506172839,0,0,0.06172839506172839,128.27160493827162,0)" xlink:href="#aC"/></g><g id="aa"><use transform="matrix(0.06172839506172839,0,0,0.06172839506172839,0,0)" xlink:href="#aZ"/><use transform="matrix(0.06172839506172839,0,0,0.06172839506172839,6.172839506172839,0)" xlink:href="#aq"/><use transform="matrix(0.06172839506172839,0,0,0.06172839506172839,11.049382716049383,0)" xlink:href="#ai"/><use transform="matrix(0.06172839506172839,0,0,0.06172839506172839,18.395061728395063,0)" xlink:href="#ao"/><use transform="matrix(0.06172839506172839,0,0,0.06172839506172839,29.506172839506174,0)" xlink:href="#an"/><use transform="matrix(0.06172839506172839,0,0,0.06172839506172839,35.67901234567901,0)" xlink:href="#ap"/><use transform="matrix(0.06172839506172839,0,0,0.06172839506172839,48.02469135802469,0)" xlink:href="#ar"/><use transform="matrix(0.06172839506172839,0,0,0.06172839506172839,60.37037037037037,0)" xlink:href="#aC"/><use transform="matrix(0.06172839506172839,0,0,0.06172839506172839,72.71604938271605,0)" xlink:href="#aX"/><use transform="matrix(0.06172839506172839,0,0,0.06172839506172839,91.17283950617283,0)" xlink:href="#as"/></g><g id="ab"><use transform="matrix(0.06172839506172839,0,0,0.06172839506172839,0,0)" xlink:href="#aH"/><use transform="matrix(0.06172839506172839,0,0,0.06172839506172839,13.148148148148147,0)" xlink:href="#aI"/><use transform="matrix(0.06172839506172839,0,0,0.06172839506172839,27.962962962962962,0)" xlink:href="#aA"/><use transform="matrix(0.06172839506172839,0,0,0.06172839506172839,43.95061728395061,0)" xlink:href="#aJ"/><use transform="matrix(0.06172839506172839,0,0,0.06172839506172839,59.938271604938265,0)" xlink:href="#aK"/><use transform="matrix(0.06172839506172839,0,0,0.06172839506172839,75.92592592592592,0)" xlink:href="#aI"/><use transform="matrix(0.06172839506172839,0,0,0.06172839506172839,90.74074074074073,0)" xlink:href="#aA"/><use transform="matrix(0.06172839506172839,0,0,0.06172839506172839,106.72839506172839,0)" xlink:href="#aL"/><use transform="matrix(0.06172839506172839,0,0,0.06172839506172839,114.07407407407408,0)" xlink:href="#aP"/><use transform="matrix(0.06172839506172839,0,0,0.06172839506172839,126.41975308641977,0)" xlink:href="#aN"/><use transform="matrix(0.06172839506172839,0,0,0.06172839506172839,138.76543209876544,0)" xlink:href="#aO"/></g><g id="ac"><use transform="matrix(0.06172839506172839,0,0,0.06172839506172839,0,0)" xlink:href="#aQ"/><use transform="matrix(0.06172839506172839,0,0,0.06172839506172839,4.876543209876543,0)" xlink:href="#aC"/><use transform="matrix(0.06172839506172839,0,0,0.06172839506172839,17.22222222222222,0)" xlink:href="#ao"/><use transform="matrix(0.06172839506172839,0,0,0.06172839506172839,28.333333333333332,0)" xlink:href="#an"/><use transform="matrix(0.06172839506172839,0,0,0.06172839506172839,34.50617283950617,0)" xlink:href="#ap"/><use transform="matrix(0.06172839506172839,0,0,0.06172839506172839,46.85185185185185,0)" xlink:href="#ar"/><use transform="matrix(0.06172839506172839,0,0,0.06172839506172839,59.197530864197525,0)" xlink:href="#aC"/><use transform="matrix(0.06172839506172839,0,0,0.06172839506172839,71.5432098765432,0)" xlink:href="#aX"/><use transform="matrix(0.06172839506172839,0,0,0.06172839506172839,89.99999999999999,0)" xlink:href="#as"/></g><g id="ad"><use transform="matrix(0.06172839506172839,0,0,0.06172839506172839,0,0)" xlink:href="#aY"/><use transform="matrix(0.06172839506172839,0,0,0.06172839506172839,12.345679012345679,0)" xlink:href="#as"/><use transform="matrix(0.06172839506172839,0,0,0.06172839506172839,24.691358024691358,0)" xlink:href="#ar"/><use transform="matrix(0.06172839506172839,0,0,0.06172839506172839,37.03703703703704,0)" xlink:href="#ak"/><use transform="matrix(0.06172839506172839,0,0,0.06172839506172839,49.382716049382715,0)" xlink:href="#as"/><use transform="matrix(0.06172839506172839,0,0,0.06172839506172839,61.72839506172839,0)" xlink:href="#ai"/></g><g id="ae"><use transform="matrix(0.06172839506172839,0,0,0.06172839506172839,0,0)" xlink:href="#aH"/><use transform="matrix(0.06172839506172839,0,0,0.06172839506172839,13.148148148148147,0)" xlink:href="#aI"/><use transform="matrix(0.06172839506172839,0,0,0.06172839506172839,27.962962962962962,0)" xlink:href="#aA"/><use transform="matrix(0.06172839506172839,0,0,0.06172839506172839,43.95061728395061,0)" xlink:href="#aJ"/><use transform="matrix(0.06172839506172839,0,0,0.06172839506172839,59.938271604938265,0)" xlink:href="#aK"/><use transform="matrix(0.06172839506172839,0,0,0.06172839506172839,75.92592592592592,0)" xlink:href="#aI"/><use transform="matrix(0.06172839506172839,0,0,0.06172839506172839,90.74074074074073,0)" xlink:href="#aA"/><use transform="matrix(0.06172839506172839,0,0,0.06172839506172839,106.72839506172839,0)" xlink:href="#aL"/><use transform="matrix(0.06172839506172839,0,0,0.06172839506172839,114.07407407407408,0)" xlink:href="#aM"/><use transform="matrix(0.06172839506172839,0,0,0.06172839506172839,126.41975308641977,0)" xlink:href="#aO"/></g><g id="af"><use transform="matrix(0.06172839506172839,0,0,0.06172839506172839,0,0)" xlink:href="#ak"/><use transform="matrix(0.06172839506172839,0,0,0.06172839506172839,12.345679012345679,0)" xlink:href="#aC"/><use transform="matrix(0.06172839506172839,0,0,0.06172839506172839,24.691358024691358,0)" xlink:href="#an"/><use transform="matrix(0.06172839506172839,0,0,0.06172839506172839,30.864197530864196,0)" xlink:href="#as"/><use transform="matrix(0.06172839506172839,0,0,0.06172839506172839,43.20987654320987,0)" xlink:href="#ap"/><use transform="matrix(0.06172839506172839,0,0,0.06172839506172839,55.55555555555555,0)" xlink:href="#aj"/><use transform="matrix(0.06172839506172839,0,0,0.06172839506172839,67.90123456790123,0)" xlink:href="#aZ"/><use transform="matrix(0.06172839506172839,0,0,0.06172839506172839,74.07407407407406,0)" xlink:href="#ap"/><use transform="matrix(0.06172839506172839,0,0,0.06172839506172839,86.41975308641975,0)" xlink:href="#ba"/><use transform="matrix(0.06172839506172839,0,0,0.06172839506172839,98.76543209876543,0)" xlink:href="#aq"/><use transform="matrix(0.06172839506172839,0,0,0.06172839506172839,103.64197530864197,0)" xlink:href="#ai"/><use transform="matrix(0.06172839506172839,0,0,0.06172839506172839,110.98765432098766,0)" xlink:href="#an"/><use transform="matrix(0.06172839506172839,0,0,0.06172839506172839,117.1604938271605,0)" xlink:href="#aF"/></g><g id="ag"><use transform="matrix(0.06172839506172839,0,0,0.06172839506172839,0,0)" xlink:href="#ah"/><use transform="matrix(0.06172839506172839,0,0,0.06172839506172839,12.345679012345679,0)" xlink:href="#aF"/><use transform="matrix(0.06172839506172839,0,0,0.06172839506172839,24.691358024691358,0)" xlink:href="#aj"/><use transform="matrix(0.06172839506172839,0,0,0.06172839506172839,37.03703703703704,0)" xlink:href="#ar"/><use transform="matrix(0.06172839506172839,0,0,0.06172839506172839,49.382716049382715,0)" xlink:href="#as"/><use transform="matrix(0.06172839506172839,0,0,0.06172839506172839,61.72839506172839,0)" xlink:href="#ap"/><use transform="matrix(0.06172839506172839,0,0,0.06172839506172839,74.07407407407408,0)" xlink:href="#ar"/><use transform="matrix(0.06172839506172839,0,0,0.06172839506172839,86.41975308641976,0)" xlink:href="#al"/><use transform="matrix(0.06172839506172839,0,0,0.06172839506172839,98.76543209876544,0)" xlink:href="#aX"/><use transform="matrix(0.06172839506172839,0,0,0.06172839506172839,117.22222222222223,0)" xlink:href="#ba"/><use transform="matrix(0.06172839506172839,0,0,0.06172839506172839,129.5679012345679,0)" xlink:href="#as"/><use transform="matrix(0.06172839506172839,0,0,0.06172839506172839,141.91358024691357,0)" xlink:href="#ai"/></g></defs></g></svg>